# Kidney dish visual shell: watertight, 1536 faces, with texture coordinates.
# Baked asset. Its dimensions, the four-arc outline they came from, and the
# collision decomposition that goes with it are documented in kidney_dish.xml.
o kidney_dish
v -0.078709 -0.000397 0.000000
v -0.077333 -0.003134 0.000000
v -0.075861 -0.005821 0.000000
v -0.074297 -0.008455 0.000000
v -0.072641 -0.011032 0.000000
v -0.070896 -0.013550 0.000000
v -0.069063 -0.016005 0.000000
v -0.067146 -0.018394 0.000000
v -0.065145 -0.020715 0.000000
v -0.063065 -0.022964 0.000000
v -0.060907 -0.025138 0.000000
v -0.058674 -0.027236 0.000000
v -0.056369 -0.029254 0.000000
v -0.053995 -0.031190 0.000000
v -0.051554 -0.033041 0.000000
v -0.049050 -0.034806 0.000000
v -0.046486 -0.036481 0.000000
v -0.043864 -0.038066 0.000000
v -0.041188 -0.039558 0.000000
v -0.038462 -0.040955 0.000000
v -0.035688 -0.042256 0.000000
v -0.032870 -0.043458 0.000000
v -0.030012 -0.044561 0.000000
v -0.027117 -0.045564 0.000000
v -0.024189 -0.046463 0.000000
v -0.021231 -0.047260 0.000000
v -0.018247 -0.047953 0.000000
v -0.015240 -0.048540 0.000000
v -0.012215 -0.049022 0.000000
v -0.009174 -0.049397 0.000000
v -0.006122 -0.049665 0.000000
v -0.003063 -0.049826 0.000000
v 0.000000 -0.049880 0.000000
v 0.003063 -0.049826 0.000000
v 0.006122 -0.049665 0.000000
v 0.009174 -0.049397 0.000000
v 0.012215 -0.049022 0.000000
v 0.015240 -0.048540 0.000000
v 0.018247 -0.047953 0.000000
v 0.021231 -0.047260 0.000000
v 0.024189 -0.046463 0.000000
v 0.027117 -0.045564 0.000000
v 0.030012 -0.044561 0.000000
v 0.032870 -0.043458 0.000000
v 0.035688 -0.042256 0.000000
v 0.038462 -0.040955 0.000000
v 0.041188 -0.039558 0.000000
v 0.043864 -0.038066 0.000000
v 0.046486 -0.036481 0.000000
v 0.049050 -0.034806 0.000000
v 0.051554 -0.033041 0.000000
v 0.053995 -0.031190 0.000000
v 0.056369 -0.029254 0.000000
v 0.058674 -0.027236 0.000000
v 0.060907 -0.025138 0.000000
v 0.063065 -0.022964 0.000000
v 0.065145 -0.020715 0.000000
v 0.067146 -0.018394 0.000000
v 0.069063 -0.016005 0.000000
v 0.070896 -0.013550 0.000000
v 0.072641 -0.011032 0.000000
v 0.074297 -0.008455 0.000000
v 0.075861 -0.005821 0.000000
v 0.077333 -0.003134 0.000000
v 0.078709 -0.000397 0.000000
v 0.079700 0.001897 0.000000
v 0.080502 0.004264 0.000000
v 0.081110 0.006688 0.000000
v 0.081520 0.009153 0.000000
v 0.081729 0.011643 0.000000
v 0.081736 0.014143 0.000000
v 0.081541 0.016634 0.000000
v 0.081144 0.019101 0.000000
v 0.080550 0.021529 0.000000
v 0.079761 0.023900 0.000000
v 0.078782 0.026200 0.000000
v 0.077621 0.028412 0.000000
v 0.076284 0.030524 0.000000
v 0.074781 0.032521 0.000000
v 0.073122 0.034389 0.000000
v 0.071316 0.036117 0.000000
v 0.069377 0.037693 0.000000
v 0.067316 0.039107 0.000000
v 0.065148 0.040350 0.000000
v 0.062886 0.041413 0.000000
v 0.060546 0.042290 0.000000
v 0.058143 0.042974 0.000000
v 0.055692 0.043462 0.000000
v 0.053209 0.043750 0.000000
v 0.050712 0.043836 0.000000
v 0.048215 0.043719 0.000000
v 0.045736 0.043401 0.000000
v 0.043292 0.042884 0.000000
v 0.040897 0.042170 0.000000
v 0.038567 0.041265 0.000000
v 0.036319 0.040174 0.000000
v 0.034166 0.038905 0.000000
v 0.033212 0.038301 0.000000
v 0.032248 0.037715 0.000000
v 0.031273 0.037146 0.000000
v 0.030289 0.036595 0.000000
v 0.029295 0.036061 0.000000
v 0.028291 0.035545 0.000000
v 0.027278 0.035048 0.000000
v 0.026257 0.034568 0.000000
v 0.025227 0.034107 0.000000
v 0.024189 0.033665 0.000000
v 0.023143 0.033241 0.000000
v 0.022090 0.032836 0.000000
v 0.021029 0.032450 0.000000
v 0.019962 0.032082 0.000000
v 0.018889 0.031734 0.000000
v 0.017809 0.031406 0.000000
v 0.016724 0.031097 0.000000
v 0.015633 0.030807 0.000000
v 0.014538 0.030537 0.000000
v 0.013438 0.030286 0.000000
v 0.012333 0.030055 0.000000
v 0.011224 0.029844 0.000000
v 0.010112 0.029653 0.000000
v 0.008997 0.029482 0.000000
v 0.007879 0.029331 0.000000
v 0.006758 0.029200 0.000000
v 0.005635 0.029089 0.000000
v 0.004510 0.028998 0.000000
v 0.003384 0.028927 0.000000
v 0.002256 0.028877 0.000000
v 0.001128 0.028846 0.000000
v 0.000000 0.028836 0.000000
v -0.001128 0.028846 0.000000
v -0.002256 0.028877 0.000000
v -0.003384 0.028927 0.000000
v -0.004510 0.028998 0.000000
v -0.005635 0.029089 0.000000
v -0.006758 0.029200 0.000000
v -0.007879 0.029331 0.000000
v -0.008997 0.029482 0.000000
v -0.010112 0.029653 0.000000
v -0.011224 0.029844 0.000000
v -0.012333 0.030055 0.000000
v -0.013438 0.030286 0.000000
v -0.014538 0.030537 0.000000
v -0.015633 0.030807 0.000000
v -0.016724 0.031097 0.000000
v -0.017809 0.031406 0.000000
v -0.018889 0.031734 0.000000
v -0.019962 0.032082 0.000000
v -0.021029 0.032450 0.000000
v -0.022090 0.032836 0.000000
v -0.023143 0.033241 0.000000
v -0.024189 0.033665 0.000000
v -0.025227 0.034107 0.000000
v -0.026257 0.034568 0.000000
v -0.027278 0.035048 0.000000
v -0.028291 0.035545 0.000000
v -0.029295 0.036061 0.000000
v -0.030289 0.036595 0.000000
v -0.031273 0.037146 0.000000
v -0.032248 0.037715 0.000000
v -0.033212 0.038301 0.000000
v -0.034166 0.038905 0.000000
v -0.036319 0.040174 0.000000
v -0.038567 0.041265 0.000000
v -0.040897 0.042170 0.000000
v -0.043292 0.042884 0.000000
v -0.045736 0.043401 0.000000
v -0.048215 0.043719 0.000000
v -0.050712 0.043836 0.000000
v -0.053209 0.043750 0.000000
v -0.055692 0.043462 0.000000
v -0.058143 0.042974 0.000000
v -0.060546 0.042290 0.000000
v -0.062886 0.041413 0.000000
v -0.065148 0.040350 0.000000
v -0.067316 0.039107 0.000000
v -0.069377 0.037693 0.000000
v -0.071316 0.036117 0.000000
v -0.073122 0.034389 0.000000
v -0.074781 0.032521 0.000000
v -0.076284 0.030524 0.000000
v -0.077621 0.028412 0.000000
v -0.078782 0.026200 0.000000
v -0.079761 0.023900 0.000000
v -0.080550 0.021529 0.000000
v -0.081144 0.019101 0.000000
v -0.081541 0.016634 0.000000
v -0.081736 0.014143 0.000000
v -0.081729 0.011643 0.000000
v -0.081520 0.009153 0.000000
v -0.081110 0.006688 0.000000
v -0.080502 0.004264 0.000000
v -0.079700 0.001897 0.000000
v -0.078709 -0.000397 0.000000
v -0.085145 -0.003493 0.033600
v -0.083656 -0.006453 0.033600
v -0.082065 -0.009360 0.033600
v -0.080372 -0.012210 0.033600
v -0.078581 -0.014998 0.033600
v -0.076693 -0.017721 0.033600
v -0.074710 -0.020377 0.033600
v -0.072636 -0.022962 0.033600
v -0.070472 -0.025472 0.033600
v -0.068222 -0.027905 0.033600
v -0.065888 -0.030257 0.033600
v -0.063472 -0.032526 0.033600
v -0.060979 -0.034709 0.033600
v -0.058410 -0.036803 0.033600
v -0.055770 -0.038806 0.033600
v -0.053061 -0.040715 0.033600
v -0.050287 -0.042528 0.033600
v -0.047451 -0.044242 0.033600
v -0.044556 -0.045856 0.033600
v -0.041607 -0.047367 0.033600
v -0.038606 -0.048774 0.033600
v -0.035558 -0.050075 0.033600
v -0.032466 -0.051268 0.033600
v -0.029335 -0.052352 0.033600
v -0.026167 -0.053326 0.033600
v -0.022967 -0.054188 0.033600
v -0.019739 -0.054937 0.033600
v -0.016486 -0.055572 0.033600
v -0.013213 -0.056093 0.033600
v -0.009924 -0.056499 0.033600
v -0.006623 -0.056789 0.033600
v -0.003314 -0.056964 0.033600
v 0.000000 -0.057022 0.033600
v 0.003314 -0.056964 0.033600
v 0.006623 -0.056789 0.033600
v 0.009924 -0.056499 0.033600
v 0.013213 -0.056093 0.033600
v 0.016486 -0.055572 0.033600
v 0.019739 -0.054937 0.033600
v 0.022967 -0.054188 0.033600
v 0.026167 -0.053326 0.033600
v 0.029335 -0.052352 0.033600
v 0.032466 -0.051268 0.033600
v 0.035558 -0.050075 0.033600
v 0.038606 -0.048774 0.033600
v 0.041607 -0.047367 0.033600
v 0.044556 -0.045856 0.033600
v 0.047451 -0.044242 0.033600
v 0.050287 -0.042528 0.033600
v 0.053061 -0.040715 0.033600
v 0.055770 -0.038806 0.033600
v 0.058410 -0.036803 0.033600
v 0.060979 -0.034709 0.033600
v 0.063472 -0.032526 0.033600
v 0.065888 -0.030257 0.033600
v 0.068222 -0.027905 0.033600
v 0.070472 -0.025472 0.033600
v 0.072636 -0.022962 0.033600
v 0.074710 -0.020377 0.033600
v 0.076693 -0.017721 0.033600
v 0.078581 -0.014998 0.033600
v 0.080372 -0.012210 0.033600
v 0.082065 -0.009360 0.033600
v 0.083656 -0.006453 0.033600
v 0.085145 -0.003493 0.033600
v 0.086365 -0.000667 0.033600
v 0.087353 0.002247 0.033600
v 0.088102 0.005232 0.033600
v 0.088607 0.008268 0.033600
v 0.088864 0.011335 0.033600
v 0.088873 0.014412 0.033600
v 0.088632 0.017480 0.033600
v 0.088144 0.020519 0.033600
v 0.087412 0.023508 0.033600
v 0.086440 0.026428 0.033600
v 0.085235 0.029260 0.033600
v 0.083805 0.031985 0.033600
v 0.082159 0.034585 0.033600
v 0.080308 0.037044 0.033600
v 0.078265 0.039344 0.033600
v 0.076041 0.041472 0.033600
v 0.073653 0.043413 0.033600
v 0.071116 0.045155 0.033600
v 0.068446 0.046685 0.033600
v 0.065661 0.047994 0.033600
v 0.062779 0.049074 0.033600
v 0.059819 0.049917 0.033600
v 0.056801 0.050517 0.033600
v 0.053744 0.050872 0.033600
v 0.050668 0.050977 0.033600
v 0.047594 0.050834 0.033600
v 0.044541 0.050442 0.033600
v 0.041531 0.049805 0.033600
v 0.038581 0.048926 0.033600
v 0.035713 0.047811 0.033600
v 0.032944 0.046468 0.033600
v 0.030293 0.044905 0.033600
v 0.029447 0.044370 0.033600
v 0.028592 0.043851 0.033600
v 0.027728 0.043346 0.033600
v 0.026855 0.042857 0.033600
v 0.025974 0.042384 0.033600
v 0.025084 0.041927 0.033600
v 0.024186 0.041486 0.033600
v 0.023280 0.041060 0.033600
v 0.022367 0.040652 0.033600
v 0.021447 0.040259 0.033600
v 0.020519 0.039883 0.033600
v 0.019586 0.039524 0.033600
v 0.018645 0.039182 0.033600
v 0.017699 0.038856 0.033600
v 0.016748 0.038548 0.033600
v 0.015790 0.038256 0.033600
v 0.014828 0.037982 0.033600
v 0.013861 0.037725 0.033600
v 0.012890 0.037486 0.033600
v 0.011914 0.037264 0.033600
v 0.010935 0.037059 0.033600
v 0.009952 0.036872 0.033600
v 0.008966 0.036702 0.033600
v 0.007977 0.036551 0.033600
v 0.006985 0.036417 0.033600
v 0.005992 0.036300 0.033600
v 0.004996 0.036202 0.033600
v 0.003999 0.036121 0.033600
v 0.003000 0.036059 0.033600
v 0.002001 0.036014 0.033600
v 0.001000 0.035987 0.033600
v 0.000000 0.035978 0.033600
v -0.001000 0.035987 0.033600
v -0.002001 0.036014 0.033600
v -0.003000 0.036059 0.033600
v -0.003999 0.036121 0.033600
v -0.004996 0.036202 0.033600
v -0.005992 0.036300 0.033600
v -0.006985 0.036417 0.033600
v -0.007977 0.036551 0.033600
v -0.008966 0.036702 0.033600
v -0.009952 0.036872 0.033600
v -0.010935 0.037059 0.033600
v -0.011914 0.037264 0.033600
v -0.012890 0.037486 0.033600
v -0.013861 0.037725 0.033600
v -0.014828 0.037982 0.033600
v -0.015790 0.038256 0.033600
v -0.016748 0.038548 0.033600
v -0.017699 0.038856 0.033600
v -0.018645 0.039182 0.033600
v -0.019586 0.039524 0.033600
v -0.020519 0.039883 0.033600
v -0.021447 0.040259 0.033600
v -0.022367 0.040652 0.033600
v -0.023280 0.041060 0.033600
v -0.024186 0.041486 0.033600
v -0.025084 0.041927 0.033600
v -0.025974 0.042384 0.033600
v -0.026855 0.042857 0.033600
v -0.027728 0.043346 0.033600
v -0.028592 0.043851 0.033600
v -0.029447 0.044370 0.033600
v -0.030293 0.044905 0.033600
v -0.032944 0.046468 0.033600
v -0.035713 0.047811 0.033600
v -0.038581 0.048926 0.033600
v -0.041531 0.049805 0.033600
v -0.044541 0.050442 0.033600
v -0.047594 0.050834 0.033600
v -0.050668 0.050977 0.033600
v -0.053744 0.050872 0.033600
v -0.056801 0.050517 0.033600
v -0.059819 0.049917 0.033600
v -0.062779 0.049074 0.033600
v -0.065661 0.047994 0.033600
v -0.068446 0.046685 0.033600
v -0.071116 0.045155 0.033600
v -0.073653 0.043413 0.033600
v -0.076041 0.041472 0.033600
v -0.078265 0.039344 0.033600
v -0.080308 0.037044 0.033600
v -0.082159 0.034585 0.033600
v -0.083805 0.031985 0.033600
v -0.085235 0.029260 0.033600
v -0.086440 0.026428 0.033600
v -0.087412 0.023508 0.033600
v -0.088144 0.020519 0.033600
v -0.088632 0.017480 0.033600
v -0.088873 0.014412 0.033600
v -0.088864 0.011335 0.033600
v -0.088607 0.008268 0.033600
v -0.088102 0.005232 0.033600
v -0.087353 0.002247 0.033600
v -0.086365 -0.000667 0.033600
v -0.085145 -0.003493 0.033600
v -0.084604 -0.003233 0.033600
v -0.083125 -0.006175 0.033600
v -0.081544 -0.009063 0.033600
v -0.079862 -0.011894 0.033600
v -0.078082 -0.014665 0.033600
v -0.076206 -0.017371 0.033600
v -0.074236 -0.020010 0.033600
v -0.072175 -0.022578 0.033600
v -0.070025 -0.025072 0.033600
v -0.067789 -0.027490 0.033600
v -0.065469 -0.029827 0.033600
v -0.063069 -0.032082 0.033600
v -0.060592 -0.034251 0.033600
v -0.058039 -0.036332 0.033600
v -0.055416 -0.038322 0.033600
v -0.052724 -0.040219 0.033600
v -0.049967 -0.042020 0.033600
v -0.047149 -0.043723 0.033600
v -0.044273 -0.045327 0.033600
v -0.041343 -0.046829 0.033600
v -0.038361 -0.048227 0.033600
v -0.035332 -0.049519 0.033600
v -0.032260 -0.050705 0.033600
v -0.029148 -0.051782 0.033600
v -0.026001 -0.052749 0.033600
v -0.022821 -0.053606 0.033600
v -0.019613 -0.054350 0.033600
v -0.016381 -0.054982 0.033600
v -0.013129 -0.055499 0.033600
v -0.009861 -0.055902 0.033600
v -0.006581 -0.056191 0.033600
v -0.003292 -0.056364 0.033600
v 0.000000 -0.056422 0.033600
v 0.003292 -0.056364 0.033600
v 0.006581 -0.056191 0.033600
v 0.009861 -0.055902 0.033600
v 0.013129 -0.055499 0.033600
v 0.016381 -0.054982 0.033600
v 0.019613 -0.054350 0.033600
v 0.022821 -0.053606 0.033600
v 0.026001 -0.052749 0.033600
v 0.029148 -0.051782 0.033600
v 0.032260 -0.050705 0.033600
v 0.035332 -0.049519 0.033600
v 0.038361 -0.048227 0.033600
v 0.041343 -0.046829 0.033600
v 0.044273 -0.045327 0.033600
v 0.047149 -0.043723 0.033600
v 0.049967 -0.042020 0.033600
v 0.052724 -0.040219 0.033600
v 0.055416 -0.038322 0.033600
v 0.058039 -0.036332 0.033600
v 0.060592 -0.034251 0.033600
v 0.063069 -0.032082 0.033600
v 0.065469 -0.029827 0.033600
v 0.067789 -0.027490 0.033600
v 0.070025 -0.025072 0.033600
v 0.072175 -0.022578 0.033600
v 0.074236 -0.020010 0.033600
v 0.076206 -0.017371 0.033600
v 0.078082 -0.014665 0.033600
v 0.079862 -0.011894 0.033600
v 0.081544 -0.009063 0.033600
v 0.083125 -0.006175 0.033600
v 0.084604 -0.003233 0.033600
v 0.085805 -0.000452 0.033600
v 0.086778 0.002417 0.033600
v 0.087515 0.005354 0.033600
v 0.088012 0.008342 0.033600
v 0.088265 0.011361 0.033600
v 0.088273 0.014389 0.033600
v 0.088037 0.017409 0.033600
v 0.087556 0.020400 0.033600
v 0.086836 0.023341 0.033600
v 0.085879 0.026215 0.033600
v 0.084693 0.029002 0.033600
v 0.083286 0.031684 0.033600
v 0.081666 0.034244 0.033600
v 0.079844 0.036664 0.033600
v 0.077833 0.038928 0.033600
v 0.075644 0.041022 0.033600
v 0.073294 0.042933 0.033600
v 0.070797 0.044647 0.033600
v 0.068169 0.046153 0.033600
v 0.065428 0.047441 0.033600
v 0.062591 0.048504 0.033600
v 0.059678 0.049333 0.033600
v 0.056707 0.049925 0.033600
v 0.053699 0.050273 0.033600
v 0.050672 0.050377 0.033600
v 0.047646 0.050236 0.033600
v 0.044642 0.049851 0.033600
v 0.041679 0.049224 0.033600
v 0.038776 0.048358 0.033600
v 0.035953 0.047261 0.033600
v 0.033227 0.045939 0.033600
v 0.030618 0.044401 0.033600
v 0.029764 0.043860 0.033600
v 0.028900 0.043335 0.033600
v 0.028026 0.042825 0.033600
v 0.027144 0.042331 0.033600
v 0.026253 0.041853 0.033600
v 0.025353 0.041391 0.033600
v 0.024446 0.040945 0.033600
v 0.023530 0.040515 0.033600
v 0.022607 0.040102 0.033600
v 0.021677 0.039705 0.033600
v 0.020740 0.039325 0.033600
v 0.019796 0.038962 0.033600
v 0.018846 0.038616 0.033600
v 0.017889 0.038287 0.033600
v 0.016927 0.037975 0.033600
v 0.015960 0.037681 0.033600
v 0.014987 0.037404 0.033600
v 0.014010 0.037144 0.033600
v 0.013028 0.036902 0.033600
v 0.012042 0.036677 0.033600
v 0.011052 0.036471 0.033600
v 0.010059 0.036281 0.033600
v 0.009062 0.036110 0.033600
v 0.008063 0.035957 0.033600
v 0.007060 0.035821 0.033600
v 0.006056 0.035704 0.033600
v 0.005050 0.035604 0.033600
v 0.004042 0.035523 0.033600
v 0.003032 0.035460 0.033600
v 0.002022 0.035414 0.033600
v 0.001011 0.035387 0.033600
v 0.000000 0.035378 0.033600
v -0.001011 0.035387 0.033600
v -0.002022 0.035414 0.033600
v -0.003032 0.035460 0.033600
v -0.004042 0.035523 0.033600
v -0.005050 0.035604 0.033600
v -0.006056 0.035704 0.033600
v -0.007060 0.035821 0.033600
v -0.008063 0.035957 0.033600
v -0.009062 0.036110 0.033600
v -0.010059 0.036281 0.033600
v -0.011052 0.036471 0.033600
v -0.012042 0.036677 0.033600
v -0.013028 0.036902 0.033600
v -0.014010 0.037144 0.033600
v -0.014987 0.037404 0.033600
v -0.015960 0.037681 0.033600
v -0.016927 0.037975 0.033600
v -0.017889 0.038287 0.033600
v -0.018846 0.038616 0.033600
v -0.019796 0.038962 0.033600
v -0.020740 0.039325 0.033600
v -0.021677 0.039705 0.033600
v -0.022607 0.040102 0.033600
v -0.023530 0.040515 0.033600
v -0.024446 0.040945 0.033600
v -0.025353 0.041391 0.033600
v -0.026253 0.041853 0.033600
v -0.027144 0.042331 0.033600
v -0.028026 0.042825 0.033600
v -0.028900 0.043335 0.033600
v -0.029764 0.043860 0.033600
v -0.030618 0.044401 0.033600
v -0.033227 0.045939 0.033600
v -0.035953 0.047261 0.033600
v -0.038776 0.048358 0.033600
v -0.041679 0.049224 0.033600
v -0.044642 0.049851 0.033600
v -0.047646 0.050236 0.033600
v -0.050672 0.050377 0.033600
v -0.053699 0.050273 0.033600
v -0.056707 0.049925 0.033600
v -0.059678 0.049333 0.033600
v -0.062591 0.048504 0.033600
v -0.065428 0.047441 0.033600
v -0.068169 0.046153 0.033600
v -0.070797 0.044647 0.033600
v -0.073294 0.042933 0.033600
v -0.075644 0.041022 0.033600
v -0.077833 0.038928 0.033600
v -0.079844 0.036664 0.033600
v -0.081666 0.034244 0.033600
v -0.083286 0.031684 0.033600
v -0.084693 0.029002 0.033600
v -0.085879 0.026215 0.033600
v -0.086836 0.023341 0.033600
v -0.087556 0.020400 0.033600
v -0.088037 0.017409 0.033600
v -0.088273 0.014389 0.033600
v -0.088265 0.011361 0.033600
v -0.088012 0.008342 0.033600
v -0.087515 0.005354 0.033600
v -0.086778 0.002417 0.033600
v -0.085805 -0.000452 0.033600
v -0.084604 -0.003233 0.033600
v -0.078283 -0.000192 0.000600
v -0.076914 -0.002914 0.000600
v -0.075451 -0.005587 0.000600
v -0.073895 -0.008207 0.000600
v -0.072248 -0.010770 0.000600
v -0.070512 -0.013274 0.000600
v -0.068689 -0.015716 0.000600
v -0.066782 -0.018092 0.000600
v -0.064793 -0.020400 0.000600
v -0.062724 -0.022637 0.000600
v -0.060578 -0.024800 0.000600
v -0.058357 -0.026886 0.000600
v -0.056065 -0.028893 0.000600
v -0.053703 -0.030818 0.000600
v -0.051275 -0.032660 0.000600
v -0.048785 -0.034415 0.000600
v -0.046234 -0.036081 0.000600
v -0.043627 -0.037658 0.000600
v -0.040965 -0.039142 0.000600
v -0.038254 -0.040531 0.000600
v -0.035495 -0.041825 0.000600
v -0.032693 -0.043021 0.000600
v -0.029850 -0.044118 0.000600
v -0.026971 -0.045114 0.000600
v -0.024058 -0.046009 0.000600
v -0.021116 -0.046802 0.000600
v -0.018148 -0.047491 0.000600
v -0.015158 -0.048075 0.000600
v -0.012148 -0.048554 0.000600
v -0.009124 -0.048927 0.000600
v -0.006089 -0.049194 0.000600
v -0.003046 -0.049354 0.000600
v 0.000000 -0.049407 0.000600
v 0.003046 -0.049354 0.000600
v 0.006089 -0.049194 0.000600
v 0.009124 -0.048927 0.000600
v 0.012148 -0.048554 0.000600
v 0.015158 -0.048075 0.000600
v 0.018148 -0.047491 0.000600
v 0.021116 -0.046802 0.000600
v 0.024058 -0.046009 0.000600
v 0.026971 -0.045114 0.000600
v 0.029850 -0.044118 0.000600
v 0.032693 -0.043021 0.000600
v 0.035495 -0.041825 0.000600
v 0.038254 -0.040531 0.000600
v 0.040965 -0.039142 0.000600
v 0.043627 -0.037658 0.000600
v 0.046234 -0.036081 0.000600
v 0.048785 -0.034415 0.000600
v 0.051275 -0.032660 0.000600
v 0.053703 -0.030818 0.000600
v 0.056065 -0.028893 0.000600
v 0.058357 -0.026886 0.000600
v 0.060578 -0.024800 0.000600
v 0.062724 -0.022637 0.000600
v 0.064793 -0.020400 0.000600
v 0.066782 -0.018092 0.000600
v 0.068689 -0.015716 0.000600
v 0.070512 -0.013274 0.000600
v 0.072248 -0.010770 0.000600
v 0.073895 -0.008207 0.000600
v 0.075451 -0.005587 0.000600
v 0.076914 -0.002914 0.000600
v 0.078283 -0.000192 0.000600
v 0.079259 0.002067 0.000600
v 0.080049 0.004397 0.000600
v 0.080648 0.006784 0.000600
v 0.081051 0.009212 0.000600
v 0.081257 0.011664 0.000600
v 0.081264 0.014125 0.000600
v 0.081072 0.016578 0.000600
v 0.080681 0.019008 0.000600
v 0.080096 0.021398 0.000600
v 0.079319 0.023733 0.000600
v 0.078355 0.025997 0.000600
v 0.077212 0.028176 0.000600
v 0.075896 0.030255 0.000600
v 0.074416 0.032221 0.000600
v 0.072781 0.034061 0.000600
v 0.071004 0.035763 0.000600
v 0.069094 0.037315 0.000600
v 0.067065 0.038707 0.000600
v 0.064930 0.039931 0.000600
v 0.062703 0.040978 0.000600
v 0.060398 0.041841 0.000600
v 0.058032 0.042515 0.000600
v 0.055618 0.042995 0.000600
v 0.053174 0.043279 0.000600
v 0.050714 0.043363 0.000600
v 0.048256 0.043249 0.000600
v 0.045815 0.042935 0.000600
v 0.043408 0.042426 0.000600
v 0.041050 0.041723 0.000600
v 0.038756 0.040832 0.000600
v 0.036542 0.039758 0.000600
v 0.034422 0.038508 0.000600
v 0.033461 0.037900 0.000600
v 0.032490 0.037309 0.000600
v 0.031508 0.036736 0.000600
v 0.030516 0.036181 0.000600
v 0.029514 0.035643 0.000600
v 0.028503 0.035123 0.000600
v 0.027483 0.034622 0.000600
v 0.026454 0.034139 0.000600
v 0.025416 0.033674 0.000600
v 0.024370 0.033228 0.000600
v 0.023316 0.032801 0.000600
v 0.022255 0.032393 0.000600
v 0.021187 0.032004 0.000600
v 0.020112 0.031634 0.000600
v 0.019030 0.031284 0.000600
v 0.017943 0.030953 0.000600
v 0.016849 0.030641 0.000600
v 0.015751 0.030349 0.000600
v 0.014647 0.030077 0.000600
v 0.013538 0.029824 0.000600
v 0.012425 0.029592 0.000600
v 0.011309 0.029379 0.000600
v 0.010188 0.029187 0.000600
v 0.009064 0.029014 0.000600
v 0.007938 0.028862 0.000600
v 0.006808 0.028730 0.000600
v 0.005677 0.028618 0.000600
v 0.004544 0.028527 0.000600
v 0.003409 0.028455 0.000600
v 0.002273 0.028405 0.000600
v 0.001137 0.028374 0.000600
v 0.000000 0.028364 0.000600
v -0.001137 0.028374 0.000600
v -0.002273 0.028405 0.000600
v -0.003409 0.028455 0.000600
v -0.004544 0.028527 0.000600
v -0.005677 0.028618 0.000600
v -0.006808 0.028730 0.000600
v -0.007938 0.028862 0.000600
v -0.009064 0.029014 0.000600
v -0.010188 0.029187 0.000600
v -0.011309 0.029379 0.000600
v -0.012425 0.029592 0.000600
v -0.013538 0.029824 0.000600
v -0.014647 0.030077 0.000600
v -0.015751 0.030349 0.000600
v -0.016849 0.030641 0.000600
v -0.017943 0.030953 0.000600
v -0.019030 0.031284 0.000600
v -0.020112 0.031634 0.000600
v -0.021187 0.032004 0.000600
v -0.022255 0.032393 0.000600
v -0.023316 0.032801 0.000600
v -0.024370 0.033228 0.000600
v -0.025416 0.033674 0.000600
v -0.026454 0.034139 0.000600
v -0.027483 0.034622 0.000600
v -0.028503 0.035123 0.000600
v -0.029514 0.035643 0.000600
v -0.030516 0.036181 0.000600
v -0.031508 0.036736 0.000600
v -0.032490 0.037309 0.000600
v -0.033461 0.037900 0.000600
v -0.034422 0.038508 0.000600
v -0.036542 0.039758 0.000600
v -0.038756 0.040832 0.000600
v -0.041050 0.041723 0.000600
v -0.043408 0.042426 0.000600
v -0.045815 0.042935 0.000600
v -0.048256 0.043249 0.000600
v -0.050714 0.043363 0.000600
v -0.053174 0.043279 0.000600
v -0.055618 0.042995 0.000600
v -0.058032 0.042515 0.000600
v -0.060398 0.041841 0.000600
v -0.062703 0.040978 0.000600
v -0.064930 0.039931 0.000600
v -0.067065 0.038707 0.000600
v -0.069094 0.037315 0.000600
v -0.071004 0.035763 0.000600
v -0.072781 0.034061 0.000600
v -0.074416 0.032221 0.000600
v -0.075896 0.030255 0.000600
v -0.077212 0.028176 0.000600
v -0.078355 0.025997 0.000600
v -0.079319 0.023733 0.000600
v -0.080096 0.021398 0.000600
v -0.080681 0.019008 0.000600
v -0.081072 0.016578 0.000600
v -0.081264 0.014125 0.000600
v -0.081257 0.011664 0.000600
v -0.081051 0.009212 0.000600
v -0.080648 0.006784 0.000600
v -0.080049 0.004397 0.000600
v -0.079259 0.002067 0.000600
v -0.078283 -0.000192 0.000600
v -0.078283 -0.000192 0.000600
v -0.076914 -0.002914 0.000600
v -0.075451 -0.005587 0.000600
v -0.073895 -0.008207 0.000600
v -0.072248 -0.010770 0.000600
v -0.070512 -0.013274 0.000600
v -0.068689 -0.015716 0.000600
v -0.066782 -0.018092 0.000600
v -0.064793 -0.020400 0.000600
v -0.062724 -0.022637 0.000600
v -0.060578 -0.024800 0.000600
v -0.058357 -0.026886 0.000600
v -0.056065 -0.028893 0.000600
v -0.053703 -0.030818 0.000600
v -0.051275 -0.032660 0.000600
v -0.048785 -0.034415 0.000600
v -0.046234 -0.036081 0.000600
v -0.043627 -0.037658 0.000600
v -0.040965 -0.039142 0.000600
v -0.038254 -0.040531 0.000600
v -0.035495 -0.041825 0.000600
v -0.032693 -0.043021 0.000600
v -0.029850 -0.044118 0.000600
v -0.026971 -0.045114 0.000600
v -0.024058 -0.046009 0.000600
v -0.021116 -0.046802 0.000600
v -0.018148 -0.047491 0.000600
v -0.015158 -0.048075 0.000600
v -0.012148 -0.048554 0.000600
v -0.009124 -0.048927 0.000600
v -0.006089 -0.049194 0.000600
v -0.003046 -0.049354 0.000600
v 0.000000 -0.049407 0.000600
v 0.003046 -0.049354 0.000600
v 0.006089 -0.049194 0.000600
v 0.009124 -0.048927 0.000600
v 0.012148 -0.048554 0.000600
v 0.015158 -0.048075 0.000600
v 0.018148 -0.047491 0.000600
v 0.021116 -0.046802 0.000600
v 0.024058 -0.046009 0.000600
v 0.026971 -0.045114 0.000600
v 0.029850 -0.044118 0.000600
v 0.032693 -0.043021 0.000600
v 0.035495 -0.041825 0.000600
v 0.038254 -0.040531 0.000600
v 0.040965 -0.039142 0.000600
v 0.043627 -0.037658 0.000600
v 0.046234 -0.036081 0.000600
v 0.048785 -0.034415 0.000600
v 0.051275 -0.032660 0.000600
v 0.053703 -0.030818 0.000600
v 0.056065 -0.028893 0.000600
v 0.058357 -0.026886 0.000600
v 0.060578 -0.024800 0.000600
v 0.062724 -0.022637 0.000600
v 0.064793 -0.020400 0.000600
v 0.066782 -0.018092 0.000600
v 0.068689 -0.015716 0.000600
v 0.070512 -0.013274 0.000600
v 0.072248 -0.010770 0.000600
v 0.073895 -0.008207 0.000600
v 0.075451 -0.005587 0.000600
v 0.076914 -0.002914 0.000600
v 0.078283 -0.000192 0.000600
v 0.079259 0.002067 0.000600
v 0.080049 0.004397 0.000600
v 0.080648 0.006784 0.000600
v 0.081051 0.009212 0.000600
v 0.081257 0.011664 0.000600
v 0.081264 0.014125 0.000600
v 0.081072 0.016578 0.000600
v 0.080681 0.019008 0.000600
v 0.080096 0.021398 0.000600
v 0.079319 0.023733 0.000600
v 0.078355 0.025997 0.000600
v 0.077212 0.028176 0.000600
v 0.075896 0.030255 0.000600
v 0.074416 0.032221 0.000600
v 0.072781 0.034061 0.000600
v 0.071004 0.035763 0.000600
v 0.069094 0.037315 0.000600
v 0.067065 0.038707 0.000600
v 0.064930 0.039931 0.000600
v 0.062703 0.040978 0.000600
v 0.060398 0.041841 0.000600
v 0.058032 0.042515 0.000600
v 0.055618 0.042995 0.000600
v 0.053174 0.043279 0.000600
v 0.050714 0.043363 0.000600
v 0.048256 0.043249 0.000600
v 0.045815 0.042935 0.000600
v 0.043408 0.042426 0.000600
v 0.041050 0.041723 0.000600
v 0.038756 0.040832 0.000600
v 0.036542 0.039758 0.000600
v 0.034422 0.038508 0.000600
v 0.033461 0.037900 0.000600
v 0.032490 0.037309 0.000600
v 0.031508 0.036736 0.000600
v 0.030516 0.036181 0.000600
v 0.029514 0.035643 0.000600
v 0.028503 0.035123 0.000600
v 0.027483 0.034622 0.000600
v 0.026454 0.034139 0.000600
v 0.025416 0.033674 0.000600
v 0.024370 0.033228 0.000600
v 0.023316 0.032801 0.000600
v 0.022255 0.032393 0.000600
v 0.021187 0.032004 0.000600
v 0.020112 0.031634 0.000600
v 0.019030 0.031284 0.000600
v 0.017943 0.030953 0.000600
v 0.016849 0.030641 0.000600
v 0.015751 0.030349 0.000600
v 0.014647 0.030077 0.000600
v 0.013538 0.029824 0.000600
v 0.012425 0.029592 0.000600
v 0.011309 0.029379 0.000600
v 0.010188 0.029187 0.000600
v 0.009064 0.029014 0.000600
v 0.007938 0.028862 0.000600
v 0.006808 0.028730 0.000600
v 0.005677 0.028618 0.000600
v 0.004544 0.028527 0.000600
v 0.003409 0.028455 0.000600
v 0.002273 0.028405 0.000600
v 0.001137 0.028374 0.000600
v 0.000000 0.028364 0.000600
v -0.001137 0.028374 0.000600
v -0.002273 0.028405 0.000600
v -0.003409 0.028455 0.000600
v -0.004544 0.028527 0.000600
v -0.005677 0.028618 0.000600
v -0.006808 0.028730 0.000600
v -0.007938 0.028862 0.000600
v -0.009064 0.029014 0.000600
v -0.010188 0.029187 0.000600
v -0.011309 0.029379 0.000600
v -0.012425 0.029592 0.000600
v -0.013538 0.029824 0.000600
v -0.014647 0.030077 0.000600
v -0.015751 0.030349 0.000600
v -0.016849 0.030641 0.000600
v -0.017943 0.030953 0.000600
v -0.019030 0.031284 0.000600
v -0.020112 0.031634 0.000600
v -0.021187 0.032004 0.000600
v -0.022255 0.032393 0.000600
v -0.023316 0.032801 0.000600
v -0.024370 0.033228 0.000600
v -0.025416 0.033674 0.000600
v -0.026454 0.034139 0.000600
v -0.027483 0.034622 0.000600
v -0.028503 0.035123 0.000600
v -0.029514 0.035643 0.000600
v -0.030516 0.036181 0.000600
v -0.031508 0.036736 0.000600
v -0.032490 0.037309 0.000600
v -0.033461 0.037900 0.000600
v -0.034422 0.038508 0.000600
v -0.036542 0.039758 0.000600
v -0.038756 0.040832 0.000600
v -0.041050 0.041723 0.000600
v -0.043408 0.042426 0.000600
v -0.045815 0.042935 0.000600
v -0.048256 0.043249 0.000600
v -0.050714 0.043363 0.000600
v -0.053174 0.043279 0.000600
v -0.055618 0.042995 0.000600
v -0.058032 0.042515 0.000600
v -0.060398 0.041841 0.000600
v -0.062703 0.040978 0.000600
v -0.064930 0.039931 0.000600
v -0.067065 0.038707 0.000600
v -0.069094 0.037315 0.000600
v -0.071004 0.035763 0.000600
v -0.072781 0.034061 0.000600
v -0.074416 0.032221 0.000600
v -0.075896 0.030255 0.000600
v -0.077212 0.028176 0.000600
v -0.078355 0.025997 0.000600
v -0.079319 0.023733 0.000600
v -0.080096 0.021398 0.000600
v -0.080681 0.019008 0.000600
v -0.081072 0.016578 0.000600
v -0.081264 0.014125 0.000600
v -0.081257 0.011664 0.000600
v -0.081051 0.009212 0.000600
v -0.080648 0.006784 0.000600
v -0.080049 0.004397 0.000600
v -0.079259 0.002067 0.000600
v 0.000000 0.000000 0.000600
v -0.078709 -0.000397 0.000000
v -0.077333 -0.003134 0.000000
v -0.075861 -0.005821 0.000000
v -0.074297 -0.008455 0.000000
v -0.072641 -0.011032 0.000000
v -0.070896 -0.013550 0.000000
v -0.069063 -0.016005 0.000000
v -0.067146 -0.018394 0.000000
v -0.065145 -0.020715 0.000000
v -0.063065 -0.022964 0.000000
v -0.060907 -0.025138 0.000000
v -0.058674 -0.027236 0.000000
v -0.056369 -0.029254 0.000000
v -0.053995 -0.031190 0.000000
v -0.051554 -0.033041 0.000000
v -0.049050 -0.034806 0.000000
v -0.046486 -0.036481 0.000000
v -0.043864 -0.038066 0.000000
v -0.041188 -0.039558 0.000000
v -0.038462 -0.040955 0.000000
v -0.035688 -0.042256 0.000000
v -0.032870 -0.043458 0.000000
v -0.030012 -0.044561 0.000000
v -0.027117 -0.045564 0.000000
v -0.024189 -0.046463 0.000000
v -0.021231 -0.047260 0.000000
v -0.018247 -0.047953 0.000000
v -0.015240 -0.048540 0.000000
v -0.012215 -0.049022 0.000000
v -0.009174 -0.049397 0.000000
v -0.006122 -0.049665 0.000000
v -0.003063 -0.049826 0.000000
v 0.000000 -0.049880 0.000000
v 0.003063 -0.049826 0.000000
v 0.006122 -0.049665 0.000000
v 0.009174 -0.049397 0.000000
v 0.012215 -0.049022 0.000000
v 0.015240 -0.048540 0.000000
v 0.018247 -0.047953 0.000000
v 0.021231 -0.047260 0.000000
v 0.024189 -0.046463 0.000000
v 0.027117 -0.045564 0.000000
v 0.030012 -0.044561 0.000000
v 0.032870 -0.043458 0.000000
v 0.035688 -0.042256 0.000000
v 0.038462 -0.040955 0.000000
v 0.041188 -0.039558 0.000000
v 0.043864 -0.038066 0.000000
v 0.046486 -0.036481 0.000000
v 0.049050 -0.034806 0.000000
v 0.051554 -0.033041 0.000000
v 0.053995 -0.031190 0.000000
v 0.056369 -0.029254 0.000000
v 0.058674 -0.027236 0.000000
v 0.060907 -0.025138 0.000000
v 0.063065 -0.022964 0.000000
v 0.065145 -0.020715 0.000000
v 0.067146 -0.018394 0.000000
v 0.069063 -0.016005 0.000000
v 0.070896 -0.013550 0.000000
v 0.072641 -0.011032 0.000000
v 0.074297 -0.008455 0.000000
v 0.075861 -0.005821 0.000000
v 0.077333 -0.003134 0.000000
v 0.078709 -0.000397 0.000000
v 0.079700 0.001897 0.000000
v 0.080502 0.004264 0.000000
v 0.081110 0.006688 0.000000
v 0.081520 0.009153 0.000000
v 0.081729 0.011643 0.000000
v 0.081736 0.014143 0.000000
v 0.081541 0.016634 0.000000
v 0.081144 0.019101 0.000000
v 0.080550 0.021529 0.000000
v 0.079761 0.023900 0.000000
v 0.078782 0.026200 0.000000
v 0.077621 0.028412 0.000000
v 0.076284 0.030524 0.000000
v 0.074781 0.032521 0.000000
v 0.073122 0.034389 0.000000
v 0.071316 0.036117 0.000000
v 0.069377 0.037693 0.000000
v 0.067316 0.039107 0.000000
v 0.065148 0.040350 0.000000
v 0.062886 0.041413 0.000000
v 0.060546 0.042290 0.000000
v 0.058143 0.042974 0.000000
v 0.055692 0.043462 0.000000
v 0.053209 0.043750 0.000000
v 0.050712 0.043836 0.000000
v 0.048215 0.043719 0.000000
v 0.045736 0.043401 0.000000
v 0.043292 0.042884 0.000000
v 0.040897 0.042170 0.000000
v 0.038567 0.041265 0.000000
v 0.036319 0.040174 0.000000
v 0.034166 0.038905 0.000000
v 0.033212 0.038301 0.000000
v 0.032248 0.037715 0.000000
v 0.031273 0.037146 0.000000
v 0.030289 0.036595 0.000000
v 0.029295 0.036061 0.000000
v 0.028291 0.035545 0.000000
v 0.027278 0.035048 0.000000
v 0.026257 0.034568 0.000000
v 0.025227 0.034107 0.000000
v 0.024189 0.033665 0.000000
v 0.023143 0.033241 0.000000
v 0.022090 0.032836 0.000000
v 0.021029 0.032450 0.000000
v 0.019962 0.032082 0.000000
v 0.018889 0.031734 0.000000
v 0.017809 0.031406 0.000000
v 0.016724 0.031097 0.000000
v 0.015633 0.030807 0.000000
v 0.014538 0.030537 0.000000
v 0.013438 0.030286 0.000000
v 0.012333 0.030055 0.000000
v 0.011224 0.029844 0.000000
v 0.010112 0.029653 0.000000
v 0.008997 0.029482 0.000000
v 0.007879 0.029331 0.000000
v 0.006758 0.029200 0.000000
v 0.005635 0.029089 0.000000
v 0.004510 0.028998 0.000000
v 0.003384 0.028927 0.000000
v 0.002256 0.028877 0.000000
v 0.001128 0.028846 0.000000
v 0.000000 0.028836 0.000000
v -0.001128 0.028846 0.000000
v -0.002256 0.028877 0.000000
v -0.003384 0.028927 0.000000
v -0.004510 0.028998 0.000000
v -0.005635 0.029089 0.000000
v -0.006758 0.029200 0.000000
v -0.007879 0.029331 0.000000
v -0.008997 0.029482 0.000000
v -0.010112 0.029653 0.000000
v -0.011224 0.029844 0.000000
v -0.012333 0.030055 0.000000
v -0.013438 0.030286 0.000000
v -0.014538 0.030537 0.000000
v -0.015633 0.030807 0.000000
v -0.016724 0.031097 0.000000
v -0.017809 0.031406 0.000000
v -0.018889 0.031734 0.000000
v -0.019962 0.032082 0.000000
v -0.021029 0.032450 0.000000
v -0.022090 0.032836 0.000000
v -0.023143 0.033241 0.000000
v -0.024189 0.033665 0.000000
v -0.025227 0.034107 0.000000
v -0.026257 0.034568 0.000000
v -0.027278 0.035048 0.000000
v -0.028291 0.035545 0.000000
v -0.029295 0.036061 0.000000
v -0.030289 0.036595 0.000000
v -0.031273 0.037146 0.000000
v -0.032248 0.037715 0.000000
v -0.033212 0.038301 0.000000
v -0.034166 0.038905 0.000000
v -0.036319 0.040174 0.000000
v -0.038567 0.041265 0.000000
v -0.040897 0.042170 0.000000
v -0.043292 0.042884 0.000000
v -0.045736 0.043401 0.000000
v -0.048215 0.043719 0.000000
v -0.050712 0.043836 0.000000
v -0.053209 0.043750 0.000000
v -0.055692 0.043462 0.000000
v -0.058143 0.042974 0.000000
v -0.060546 0.042290 0.000000
v -0.062886 0.041413 0.000000
v -0.065148 0.040350 0.000000
v -0.067316 0.039107 0.000000
v -0.069377 0.037693 0.000000
v -0.071316 0.036117 0.000000
v -0.073122 0.034389 0.000000
v -0.074781 0.032521 0.000000
v -0.076284 0.030524 0.000000
v -0.077621 0.028412 0.000000
v -0.078782 0.026200 0.000000
v -0.079761 0.023900 0.000000
v -0.080550 0.021529 0.000000
v -0.081144 0.019101 0.000000
v -0.081541 0.016634 0.000000
v -0.081736 0.014143 0.000000
v -0.081729 0.011643 0.000000
v -0.081520 0.009153 0.000000
v -0.081110 0.006688 0.000000
v -0.080502 0.004264 0.000000
v -0.079700 0.001897 0.000000
v 0.000000 0.000000 0.000000
vt 0.000000 0.000000
vt 0.055234 0.000000
vt 0.110467 0.000000
vt 0.165701 0.000000
vt 0.220935 0.000000
vt 0.276169 0.000000
vt 0.331402 0.000000
vt 0.386636 0.000000
vt 0.441870 0.000000
vt 0.497104 0.000000
vt 0.552337 0.000000
vt 0.607571 0.000000
vt 0.662805 0.000000
vt 0.718039 0.000000
vt 0.773272 0.000000
vt 0.828506 0.000000
vt 0.883740 0.000000
vt 0.938974 0.000000
vt 0.994207 0.000000
vt 1.049441 0.000000
vt 1.104675 0.000000
vt 1.159909 0.000000
vt 1.215142 0.000000
vt 1.270376 0.000000
vt 1.325610 0.000000
vt 1.380844 0.000000
vt 1.436077 0.000000
vt 1.491311 0.000000
vt 1.546545 0.000000
vt 1.601779 0.000000
vt 1.657012 0.000000
vt 1.712246 0.000000
vt 1.767480 0.000000
vt 1.822713 0.000000
vt 1.877947 0.000000
vt 1.933181 0.000000
vt 1.988415 0.000000
vt 2.043648 0.000000
vt 2.098882 0.000000
vt 2.154116 0.000000
vt 2.209350 0.000000
vt 2.264583 0.000000
vt 2.319817 0.000000
vt 2.375051 0.000000
vt 2.430285 0.000000
vt 2.485518 0.000000
vt 2.540752 0.000000
vt 2.595986 0.000000
vt 2.651220 0.000000
vt 2.706453 0.000000
vt 2.761687 0.000000
vt 2.816921 0.000000
vt 2.872155 0.000000
vt 2.927388 0.000000
vt 2.982622 0.000000
vt 3.037856 0.000000
vt 3.093090 0.000000
vt 3.148323 0.000000
vt 3.203557 0.000000
vt 3.258791 0.000000
vt 3.314025 0.000000
vt 3.369258 0.000000
vt 3.424492 0.000000
vt 3.479726 0.000000
vt 3.534959 0.000000
vt 3.586251 0.000000
vt 3.637542 0.000000
vt 3.688834 0.000000
vt 3.740125 0.000000
vt 3.791416 0.000000
vt 3.842708 0.000000
vt 3.893999 0.000000
vt 3.945290 0.000000
vt 3.996582 0.000000
vt 4.047873 0.000000
vt 4.099164 0.000000
vt 4.150456 0.000000
vt 4.201747 0.000000
vt 4.253038 0.000000
vt 4.304330 0.000000
vt 4.355621 0.000000
vt 4.406912 0.000000
vt 4.458204 0.000000
vt 4.509495 0.000000
vt 4.560786 0.000000
vt 4.612078 0.000000
vt 4.663369 0.000000
vt 4.714660 0.000000
vt 4.765952 0.000000
vt 4.817243 0.000000
vt 4.868534 0.000000
vt 4.919826 0.000000
vt 4.971117 0.000000
vt 5.022408 0.000000
vt 5.073700 0.000000
vt 5.124991 0.000000
vt 5.176282 0.000000
vt 5.192958 0.000000
vt 5.209633 0.000000
vt 5.226309 0.000000
vt 5.242984 0.000000
vt 5.259660 0.000000
vt 5.276335 0.000000
vt 5.293010 0.000000
vt 5.309686 0.000000
vt 5.326361 0.000000
vt 5.343037 0.000000
vt 5.359712 0.000000
vt 5.376388 0.000000
vt 5.393063 0.000000
vt 5.409739 0.000000
vt 5.426414 0.000000
vt 5.443089 0.000000
vt 5.459765 0.000000
vt 5.476440 0.000000
vt 5.493116 0.000000
vt 5.509791 0.000000
vt 5.526467 0.000000
vt 5.543142 0.000000
vt 5.559817 0.000000
vt 5.576493 0.000000
vt 5.593168 0.000000
vt 5.609844 0.000000
vt 5.626519 0.000000
vt 5.643195 0.000000
vt 5.659870 0.000000
vt 5.676545 0.000000
vt 5.693221 0.000000
vt 5.709896 0.000000
vt 5.726572 0.000000
vt 5.743247 0.000000
vt 5.759923 0.000000
vt 5.776598 0.000000
vt 5.793274 0.000000
vt 5.809949 0.000000
vt 5.826624 0.000000
vt 5.843300 0.000000
vt 5.859975 0.000000
vt 5.876651 0.000000
vt 5.893326 0.000000
vt 5.910002 0.000000
vt 5.926677 0.000000
vt 5.943352 0.000000
vt 5.960028 0.000000
vt 5.976703 0.000000
vt 5.993379 0.000000
vt 6.010054 0.000000
vt 6.026730 0.000000
vt 6.043405 0.000000
vt 6.060081 0.000000
vt 6.076756 0.000000
vt 6.093431 0.000000
vt 6.110107 0.000000
vt 6.126782 0.000000
vt 6.143458 0.000000
vt 6.160133 0.000000
vt 6.176809 0.000000
vt 6.193484 0.000000
vt 6.210159 0.000000
vt 6.226835 0.000000
vt 6.243510 0.000000
vt 6.294802 0.000000
vt 6.346093 0.000000
vt 6.397384 0.000000
vt 6.448676 0.000000
vt 6.499967 0.000000
vt 6.551258 0.000000
vt 6.602550 0.000000
vt 6.653841 0.000000
vt 6.705132 0.000000
vt 6.756424 0.000000
vt 6.807715 0.000000
vt 6.859006 0.000000
vt 6.910298 0.000000
vt 6.961589 0.000000
vt 7.012880 0.000000
vt 7.064172 0.000000
vt 7.115463 0.000000
vt 7.166754 0.000000
vt 7.218046 0.000000
vt 7.269337 0.000000
vt 7.320628 0.000000
vt 7.371920 0.000000
vt 7.423211 0.000000
vt 7.474503 0.000000
vt 7.525794 0.000000
vt 7.577085 0.000000
vt 7.628377 0.000000
vt 7.679668 0.000000
vt 7.730959 0.000000
vt 7.782251 0.000000
vt 7.833542 0.000000
vt 7.884833 0.000000
vt 0.000000 0.572511
vt 0.055234 0.572511
vt 0.110467 0.572511
vt 0.165701 0.572511
vt 0.220935 0.572511
vt 0.276169 0.572511
vt 0.331402 0.572511
vt 0.386636 0.572511
vt 0.441870 0.572511
vt 0.497104 0.572511
vt 0.552337 0.572511
vt 0.607571 0.572511
vt 0.662805 0.572511
vt 0.718039 0.572511
vt 0.773272 0.572511
vt 0.828506 0.572511
vt 0.883740 0.572511
vt 0.938974 0.572511
vt 0.994207 0.572511
vt 1.049441 0.572511
vt 1.104675 0.572511
vt 1.159909 0.572511
vt 1.215142 0.572511
vt 1.270376 0.572511
vt 1.325610 0.572511
vt 1.380844 0.572511
vt 1.436077 0.572511
vt 1.491311 0.572511
vt 1.546545 0.572511
vt 1.601779 0.572511
vt 1.657012 0.572511
vt 1.712246 0.572511
vt 1.767480 0.572511
vt 1.822713 0.572511
vt 1.877947 0.572511
vt 1.933181 0.572511
vt 1.988415 0.572511
vt 2.043648 0.572511
vt 2.098882 0.572511
vt 2.154116 0.572511
vt 2.209350 0.572511
vt 2.264583 0.572511
vt 2.319817 0.572511
vt 2.375051 0.572511
vt 2.430285 0.572511
vt 2.485518 0.572511
vt 2.540752 0.572511
vt 2.595986 0.572511
vt 2.651220 0.572511
vt 2.706453 0.572511
vt 2.761687 0.572511
vt 2.816921 0.572511
vt 2.872155 0.572511
vt 2.927388 0.572511
vt 2.982622 0.572511
vt 3.037856 0.572511
vt 3.093090 0.572511
vt 3.148323 0.572511
vt 3.203557 0.572511
vt 3.258791 0.572511
vt 3.314025 0.572511
vt 3.369258 0.572511
vt 3.424492 0.572511
vt 3.479726 0.572511
vt 3.534959 0.572511
vt 3.586251 0.572511
vt 3.637542 0.572511
vt 3.688834 0.572511
vt 3.740125 0.572511
vt 3.791416 0.572511
vt 3.842708 0.572511
vt 3.893999 0.572511
vt 3.945290 0.572511
vt 3.996582 0.572511
vt 4.047873 0.572511
vt 4.099164 0.572511
vt 4.150456 0.572511
vt 4.201747 0.572511
vt 4.253038 0.572511
vt 4.304330 0.572511
vt 4.355621 0.572511
vt 4.406912 0.572511
vt 4.458204 0.572511
vt 4.509495 0.572511
vt 4.560786 0.572511
vt 4.612078 0.572511
vt 4.663369 0.572511
vt 4.714660 0.572511
vt 4.765952 0.572511
vt 4.817243 0.572511
vt 4.868534 0.572511
vt 4.919826 0.572511
vt 4.971117 0.572511
vt 5.022408 0.572511
vt 5.073700 0.572511
vt 5.124991 0.572511
vt 5.176282 0.572511
vt 5.192958 0.572511
vt 5.209633 0.572511
vt 5.226309 0.572511
vt 5.242984 0.572511
vt 5.259660 0.572511
vt 5.276335 0.572511
vt 5.293010 0.572511
vt 5.309686 0.572511
vt 5.326361 0.572511
vt 5.343037 0.572511
vt 5.359712 0.572511
vt 5.376388 0.572511
vt 5.393063 0.572511
vt 5.409739 0.572511
vt 5.426414 0.572511
vt 5.443089 0.572511
vt 5.459765 0.572511
vt 5.476440 0.572511
vt 5.493116 0.572511
vt 5.509791 0.572511
vt 5.526467 0.572511
vt 5.543142 0.572511
vt 5.559817 0.572511
vt 5.576493 0.572511
vt 5.593168 0.572511
vt 5.609844 0.572511
vt 5.626519 0.572511
vt 5.643195 0.572511
vt 5.659870 0.572511
vt 5.676545 0.572511
vt 5.693221 0.572511
vt 5.709896 0.572511
vt 5.726572 0.572511
vt 5.743247 0.572511
vt 5.759923 0.572511
vt 5.776598 0.572511
vt 5.793274 0.572511
vt 5.809949 0.572511
vt 5.826624 0.572511
vt 5.843300 0.572511
vt 5.859975 0.572511
vt 5.876651 0.572511
vt 5.893326 0.572511
vt 5.910002 0.572511
vt 5.926677 0.572511
vt 5.943352 0.572511
vt 5.960028 0.572511
vt 5.976703 0.572511
vt 5.993379 0.572511
vt 6.010054 0.572511
vt 6.026730 0.572511
vt 6.043405 0.572511
vt 6.060081 0.572511
vt 6.076756 0.572511
vt 6.093431 0.572511
vt 6.110107 0.572511
vt 6.126782 0.572511
vt 6.143458 0.572511
vt 6.160133 0.572511
vt 6.176809 0.572511
vt 6.193484 0.572511
vt 6.210159 0.572511
vt 6.226835 0.572511
vt 6.243510 0.572511
vt 6.294802 0.572511
vt 6.346093 0.572511
vt 6.397384 0.572511
vt 6.448676 0.572511
vt 6.499967 0.572511
vt 6.551258 0.572511
vt 6.602550 0.572511
vt 6.653841 0.572511
vt 6.705132 0.572511
vt 6.756424 0.572511
vt 6.807715 0.572511
vt 6.859006 0.572511
vt 6.910298 0.572511
vt 6.961589 0.572511
vt 7.012880 0.572511
vt 7.064172 0.572511
vt 7.115463 0.572511
vt 7.166754 0.572511
vt 7.218046 0.572511
vt 7.269337 0.572511
vt 7.320628 0.572511
vt 7.371920 0.572511
vt 7.423211 0.572511
vt 7.474503 0.572511
vt 7.525794 0.572511
vt 7.577085 0.572511
vt 7.628377 0.572511
vt 7.679668 0.572511
vt 7.730959 0.572511
vt 7.782251 0.572511
vt 7.833542 0.572511
vt 7.884833 0.572511
vt 0.000000 0.582511
vt 0.055234 0.582511
vt 0.110467 0.582511
vt 0.165701 0.582511
vt 0.220935 0.582511
vt 0.276169 0.582511
vt 0.331402 0.582511
vt 0.386636 0.582511
vt 0.441870 0.582511
vt 0.497104 0.582511
vt 0.552337 0.582511
vt 0.607571 0.582511
vt 0.662805 0.582511
vt 0.718039 0.582511
vt 0.773272 0.582511
vt 0.828506 0.582511
vt 0.883740 0.582511
vt 0.938974 0.582511
vt 0.994207 0.582511
vt 1.049441 0.582511
vt 1.104675 0.582511
vt 1.159909 0.582511
vt 1.215142 0.582511
vt 1.270376 0.582511
vt 1.325610 0.582511
vt 1.380844 0.582511
vt 1.436077 0.582511
vt 1.491311 0.582511
vt 1.546545 0.582511
vt 1.601779 0.582511
vt 1.657012 0.582511
vt 1.712246 0.582511
vt 1.767480 0.582511
vt 1.822713 0.582511
vt 1.877947 0.582511
vt 1.933181 0.582511
vt 1.988415 0.582511
vt 2.043648 0.582511
vt 2.098882 0.582511
vt 2.154116 0.582511
vt 2.209350 0.582511
vt 2.264583 0.582511
vt 2.319817 0.582511
vt 2.375051 0.582511
vt 2.430285 0.582511
vt 2.485518 0.582511
vt 2.540752 0.582511
vt 2.595986 0.582511
vt 2.651220 0.582511
vt 2.706453 0.582511
vt 2.761687 0.582511
vt 2.816921 0.582511
vt 2.872155 0.582511
vt 2.927388 0.582511
vt 2.982622 0.582511
vt 3.037856 0.582511
vt 3.093090 0.582511
vt 3.148323 0.582511
vt 3.203557 0.582511
vt 3.258791 0.582511
vt 3.314025 0.582511
vt 3.369258 0.582511
vt 3.424492 0.582511
vt 3.479726 0.582511
vt 3.534959 0.582511
vt 3.586251 0.582511
vt 3.637542 0.582511
vt 3.688834 0.582511
vt 3.740125 0.582511
vt 3.791416 0.582511
vt 3.842708 0.582511
vt 3.893999 0.582511
vt 3.945290 0.582511
vt 3.996582 0.582511
vt 4.047873 0.582511
vt 4.099164 0.582511
vt 4.150456 0.582511
vt 4.201747 0.582511
vt 4.253038 0.582511
vt 4.304330 0.582511
vt 4.355621 0.582511
vt 4.406912 0.582511
vt 4.458204 0.582511
vt 4.509495 0.582511
vt 4.560786 0.582511
vt 4.612078 0.582511
vt 4.663369 0.582511
vt 4.714660 0.582511
vt 4.765952 0.582511
vt 4.817243 0.582511
vt 4.868534 0.582511
vt 4.919826 0.582511
vt 4.971117 0.582511
vt 5.022408 0.582511
vt 5.073700 0.582511
vt 5.124991 0.582511
vt 5.176282 0.582511
vt 5.192958 0.582511
vt 5.209633 0.582511
vt 5.226309 0.582511
vt 5.242984 0.582511
vt 5.259660 0.582511
vt 5.276335 0.582511
vt 5.293010 0.582511
vt 5.309686 0.582511
vt 5.326361 0.582511
vt 5.343037 0.582511
vt 5.359712 0.582511
vt 5.376388 0.582511
vt 5.393063 0.582511
vt 5.409739 0.582511
vt 5.426414 0.582511
vt 5.443089 0.582511
vt 5.459765 0.582511
vt 5.476440 0.582511
vt 5.493116 0.582511
vt 5.509791 0.582511
vt 5.526467 0.582511
vt 5.543142 0.582511
vt 5.559817 0.582511
vt 5.576493 0.582511
vt 5.593168 0.582511
vt 5.609844 0.582511
vt 5.626519 0.582511
vt 5.643195 0.582511
vt 5.659870 0.582511
vt 5.676545 0.582511
vt 5.693221 0.582511
vt 5.709896 0.582511
vt 5.726572 0.582511
vt 5.743247 0.582511
vt 5.759923 0.582511
vt 5.776598 0.582511
vt 5.793274 0.582511
vt 5.809949 0.582511
vt 5.826624 0.582511
vt 5.843300 0.582511
vt 5.859975 0.582511
vt 5.876651 0.582511
vt 5.893326 0.582511
vt 5.910002 0.582511
vt 5.926677 0.582511
vt 5.943352 0.582511
vt 5.960028 0.582511
vt 5.976703 0.582511
vt 5.993379 0.582511
vt 6.010054 0.582511
vt 6.026730 0.582511
vt 6.043405 0.582511
vt 6.060081 0.582511
vt 6.076756 0.582511
vt 6.093431 0.582511
vt 6.110107 0.582511
vt 6.126782 0.582511
vt 6.143458 0.582511
vt 6.160133 0.582511
vt 6.176809 0.582511
vt 6.193484 0.582511
vt 6.210159 0.582511
vt 6.226835 0.582511
vt 6.243510 0.582511
vt 6.294802 0.582511
vt 6.346093 0.582511
vt 6.397384 0.582511
vt 6.448676 0.582511
vt 6.499967 0.582511
vt 6.551258 0.582511
vt 6.602550 0.582511
vt 6.653841 0.582511
vt 6.705132 0.582511
vt 6.756424 0.582511
vt 6.807715 0.582511
vt 6.859006 0.582511
vt 6.910298 0.582511
vt 6.961589 0.582511
vt 7.012880 0.582511
vt 7.064172 0.582511
vt 7.115463 0.582511
vt 7.166754 0.582511
vt 7.218046 0.582511
vt 7.269337 0.582511
vt 7.320628 0.582511
vt 7.371920 0.582511
vt 7.423211 0.582511
vt 7.474503 0.582511
vt 7.525794 0.582511
vt 7.577085 0.582511
vt 7.628377 0.582511
vt 7.679668 0.582511
vt 7.730959 0.582511
vt 7.782251 0.582511
vt 7.833542 0.582511
vt 7.884833 0.582511
vt 0.000000 1.144798
vt 0.055234 1.144798
vt 0.110467 1.144798
vt 0.165701 1.144798
vt 0.220935 1.144798
vt 0.276169 1.144798
vt 0.331402 1.144798
vt 0.386636 1.144798
vt 0.441870 1.144798
vt 0.497104 1.144798
vt 0.552337 1.144798
vt 0.607571 1.144798
vt 0.662805 1.144798
vt 0.718039 1.144798
vt 0.773272 1.144798
vt 0.828506 1.144798
vt 0.883740 1.144798
vt 0.938974 1.144798
vt 0.994207 1.144798
vt 1.049441 1.144798
vt 1.104675 1.144798
vt 1.159909 1.144798
vt 1.215142 1.144798
vt 1.270376 1.144798
vt 1.325610 1.144798
vt 1.380844 1.144798
vt 1.436077 1.144798
vt 1.491311 1.144798
vt 1.546545 1.144798
vt 1.601779 1.144798
vt 1.657012 1.144798
vt 1.712246 1.144798
vt 1.767480 1.144798
vt 1.822713 1.144798
vt 1.877947 1.144798
vt 1.933181 1.144798
vt 1.988415 1.144798
vt 2.043648 1.144798
vt 2.098882 1.144798
vt 2.154116 1.144798
vt 2.209350 1.144798
vt 2.264583 1.144798
vt 2.319817 1.144798
vt 2.375051 1.144798
vt 2.430285 1.144798
vt 2.485518 1.144798
vt 2.540752 1.144798
vt 2.595986 1.144798
vt 2.651220 1.144798
vt 2.706453 1.144798
vt 2.761687 1.144798
vt 2.816921 1.144798
vt 2.872155 1.144798
vt 2.927388 1.144798
vt 2.982622 1.144798
vt 3.037856 1.144798
vt 3.093090 1.144798
vt 3.148323 1.144798
vt 3.203557 1.144798
vt 3.258791 1.144798
vt 3.314025 1.144798
vt 3.369258 1.144798
vt 3.424492 1.144798
vt 3.479726 1.144798
vt 3.534959 1.144798
vt 3.586251 1.144798
vt 3.637542 1.144798
vt 3.688834 1.144798
vt 3.740125 1.144798
vt 3.791416 1.144798
vt 3.842708 1.144798
vt 3.893999 1.144798
vt 3.945290 1.144798
vt 3.996582 1.144798
vt 4.047873 1.144798
vt 4.099164 1.144798
vt 4.150456 1.144798
vt 4.201747 1.144798
vt 4.253038 1.144798
vt 4.304330 1.144798
vt 4.355621 1.144798
vt 4.406912 1.144798
vt 4.458204 1.144798
vt 4.509495 1.144798
vt 4.560786 1.144798
vt 4.612078 1.144798
vt 4.663369 1.144798
vt 4.714660 1.144798
vt 4.765952 1.144798
vt 4.817243 1.144798
vt 4.868534 1.144798
vt 4.919826 1.144798
vt 4.971117 1.144798
vt 5.022408 1.144798
vt 5.073700 1.144798
vt 5.124991 1.144798
vt 5.176282 1.144798
vt 5.192958 1.144798
vt 5.209633 1.144798
vt 5.226309 1.144798
vt 5.242984 1.144798
vt 5.259660 1.144798
vt 5.276335 1.144798
vt 5.293010 1.144798
vt 5.309686 1.144798
vt 5.326361 1.144798
vt 5.343037 1.144798
vt 5.359712 1.144798
vt 5.376388 1.144798
vt 5.393063 1.144798
vt 5.409739 1.144798
vt 5.426414 1.144798
vt 5.443089 1.144798
vt 5.459765 1.144798
vt 5.476440 1.144798
vt 5.493116 1.144798
vt 5.509791 1.144798
vt 5.526467 1.144798
vt 5.543142 1.144798
vt 5.559817 1.144798
vt 5.576493 1.144798
vt 5.593168 1.144798
vt 5.609844 1.144798
vt 5.626519 1.144798
vt 5.643195 1.144798
vt 5.659870 1.144798
vt 5.676545 1.144798
vt 5.693221 1.144798
vt 5.709896 1.144798
vt 5.726572 1.144798
vt 5.743247 1.144798
vt 5.759923 1.144798
vt 5.776598 1.144798
vt 5.793274 1.144798
vt 5.809949 1.144798
vt 5.826624 1.144798
vt 5.843300 1.144798
vt 5.859975 1.144798
vt 5.876651 1.144798
vt 5.893326 1.144798
vt 5.910002 1.144798
vt 5.926677 1.144798
vt 5.943352 1.144798
vt 5.960028 1.144798
vt 5.976703 1.144798
vt 5.993379 1.144798
vt 6.010054 1.144798
vt 6.026730 1.144798
vt 6.043405 1.144798
vt 6.060081 1.144798
vt 6.076756 1.144798
vt 6.093431 1.144798
vt 6.110107 1.144798
vt 6.126782 1.144798
vt 6.143458 1.144798
vt 6.160133 1.144798
vt 6.176809 1.144798
vt 6.193484 1.144798
vt 6.210159 1.144798
vt 6.226835 1.144798
vt 6.243510 1.144798
vt 6.294802 1.144798
vt 6.346093 1.144798
vt 6.397384 1.144798
vt 6.448676 1.144798
vt 6.499967 1.144798
vt 6.551258 1.144798
vt 6.602550 1.144798
vt 6.653841 1.144798
vt 6.705132 1.144798
vt 6.756424 1.144798
vt 6.807715 1.144798
vt 6.859006 1.144798
vt 6.910298 1.144798
vt 6.961589 1.144798
vt 7.012880 1.144798
vt 7.064172 1.144798
vt 7.115463 1.144798
vt 7.166754 1.144798
vt 7.218046 1.144798
vt 7.269337 1.144798
vt 7.320628 1.144798
vt 7.371920 1.144798
vt 7.423211 1.144798
vt 7.474503 1.144798
vt 7.525794 1.144798
vt 7.577085 1.144798
vt 7.628377 1.144798
vt 7.679668 1.144798
vt 7.730959 1.144798
vt 7.782251 1.144798
vt 7.833542 1.144798
vt 7.884833 1.144798
vt -1.304716 -0.003204
vt -1.281906 -0.048575
vt -1.257518 -0.093118
vt -1.231583 -0.136778
vt -1.204133 -0.179502
vt -1.175202 -0.221238
vt -1.144825 -0.261932
vt -1.113039 -0.301537
vt -1.079884 -0.340002
vt -1.045400 -0.377281
vt -1.009630 -0.413328
vt -0.972617 -0.448098
vt -0.934409 -0.481548
vt -0.895050 -0.513638
vt -0.854591 -0.544328
vt -0.813079 -0.573580
vt -0.770568 -0.601358
vt -0.727109 -0.627628
vt -0.682755 -0.652358
vt -0.637561 -0.675518
vt -0.591582 -0.697078
vt -0.544876 -0.717012
vt -0.497499 -0.735296
vt -0.449510 -0.751907
vt -0.400969 -0.766825
vt -0.351933 -0.780031
vt -0.302465 -0.791510
vt -0.252625 -0.801247
vt -0.202474 -0.809229
vt -0.152074 -0.815448
vt -0.101487 -0.819896
vt -0.050775 -0.822567
vt 0.000000 -0.823457
vt 0.050775 -0.822567
vt 0.101487 -0.819896
vt 0.152074 -0.815448
vt 0.202474 -0.809229
vt 0.252625 -0.801247
vt 0.302465 -0.791510
vt 0.351933 -0.780031
vt 0.400969 -0.766825
vt 0.449510 -0.751907
vt 0.497499 -0.735296
vt 0.544876 -0.717012
vt 0.591582 -0.697078
vt 0.637561 -0.675518
vt 0.682755 -0.652358
vt 0.727109 -0.627628
vt 0.770568 -0.601358
vt 0.813079 -0.573580
vt 0.854591 -0.544328
vt 0.895050 -0.513638
vt 0.934409 -0.481548
vt 0.972617 -0.448098
vt 1.009630 -0.413328
vt 1.045400 -0.377281
vt 1.079884 -0.340002
vt 1.113039 -0.301537
vt 1.144825 -0.261932
vt 1.175202 -0.221238
vt 1.204133 -0.179502
vt 1.231583 -0.136778
vt 1.257518 -0.093118
vt 1.281906 -0.048575
vt 1.304716 -0.003204
vt 1.320982 0.034447
vt 1.334148 0.073290
vt 1.344127 0.113071
vt 1.350855 0.153529
vt 1.354287 0.194399
vt 1.354400 0.235412
vt 1.351194 0.276301
vt 1.344690 0.316795
vt 1.334930 0.356631
vt 1.321979 0.395546
vt 1.305922 0.433286
vt 1.286863 0.469602
vt 1.264928 0.504257
vt 1.240261 0.537024
vt 1.213023 0.567687
vt 1.183393 0.596045
vt 1.151565 0.621913
vt 1.117749 0.645120
vt 1.082166 0.665515
vt 1.045049 0.682963
vt 1.006641 0.697351
vt 0.967196 0.708584
vt 0.926971 0.716588
vt 0.886230 0.721311
vt 0.845241 0.722721
vt 0.804271 0.720810
vt 0.763591 0.715590
vt 0.723467 0.707095
vt 0.684162 0.695382
vt 0.645933 0.680526
vt 0.609032 0.662625
vt 0.573700 0.641797
vt 0.557689 0.631665
vt 0.541498 0.621820
vt 0.525134 0.612268
vt 0.508601 0.603010
vt 0.491905 0.594049
vt 0.475051 0.585389
vt 0.458045 0.577032
vt 0.440892 0.568981
vt 0.423598 0.561239
vt 0.406167 0.553808
vt 0.388606 0.546690
vt 0.370921 0.539887
vt 0.353117 0.533403
vt 0.335199 0.527238
vt 0.317174 0.521396
vt 0.299047 0.515877
vt 0.280824 0.510684
vt 0.262511 0.505818
vt 0.244114 0.501280
vt 0.225638 0.497073
vt 0.207090 0.493198
vt 0.188476 0.489655
vt 0.169801 0.486446
vt 0.151072 0.483573
vt 0.132294 0.481035
vt 0.113474 0.478834
vt 0.094617 0.476970
vt 0.075730 0.475444
vt 0.056819 0.474257
vt 0.037889 0.473409
vt 0.018948 0.472900
vt 0.000000 0.472730
vt -0.018948 0.472900
vt -0.037889 0.473409
vt -0.056819 0.474257
vt -0.075730 0.475444
vt -0.094617 0.476970
vt -0.113474 0.478834
vt -0.132294 0.481035
vt -0.151072 0.483573
vt -0.169801 0.486446
vt -0.188476 0.489655
vt -0.207090 0.493198
vt -0.225638 0.497073
vt -0.244114 0.501280
vt -0.262511 0.505818
vt -0.280824 0.510684
vt -0.299047 0.515877
vt -0.317174 0.521396
vt -0.335199 0.527238
vt -0.353117 0.533403
vt -0.370921 0.539887
vt -0.388606 0.546690
vt -0.406167 0.553808
vt -0.423598 0.561239
vt -0.440892 0.568981
vt -0.458045 0.577032
vt -0.475051 0.585389
vt -0.491905 0.594049
vt -0.508601 0.603010
vt -0.525134 0.612268
vt -0.541498 0.621820
vt -0.557689 0.631665
vt -0.573700 0.641797
vt -0.609032 0.662625
vt -0.645933 0.680526
vt -0.684162 0.695382
vt -0.723467 0.707095
vt -0.763591 0.715590
vt -0.804271 0.720810
vt -0.845241 0.722721
vt -0.886230 0.721311
vt -0.926971 0.716588
vt -0.967196 0.708584
vt -1.006641 0.697351
vt -1.045049 0.682963
vt -1.082166 0.665515
vt -1.117749 0.645120
vt -1.151565 0.621913
vt -1.183393 0.596045
vt -1.213023 0.567687
vt -1.240261 0.537024
vt -1.264928 0.504257
vt -1.286863 0.469602
vt -1.305922 0.433286
vt -1.321979 0.395546
vt -1.334930 0.356631
vt -1.344690 0.316795
vt -1.351194 0.276301
vt -1.354400 0.235412
vt -1.354287 0.194399
vt -1.350855 0.153529
vt -1.344127 0.113071
vt -1.334148 0.073290
vt -1.320982 0.034447
vt 0.000000 0.000000
vt -1.311812 -0.006617
vt -1.288878 -0.052235
vt -1.264358 -0.097020
vt -1.238282 -0.140918
vt -1.210683 -0.183874
vt -1.181594 -0.225837
vt -1.151051 -0.266753
vt -1.119093 -0.306573
vt -1.085757 -0.345247
vt -1.051086 -0.382729
vt -1.015121 -0.418971
vt -0.977908 -0.453930
vt -0.939491 -0.487563
vt -0.899918 -0.519827
vt -0.859239 -0.550684
vt -0.817502 -0.580095
vt -0.774759 -0.608025
vt -0.731063 -0.634438
vt -0.686468 -0.659302
vt -0.641028 -0.682587
vt -0.594800 -0.704265
vt -0.547839 -0.724307
vt -0.500205 -0.742691
vt -0.451955 -0.759392
vt -0.403149 -0.774391
vt -0.353848 -0.787670
vt -0.304110 -0.799211
vt -0.253999 -0.809000
vt -0.203575 -0.817026
vt -0.152901 -0.823279
vt -0.102039 -0.827751
vt -0.051051 -0.830436
vt 0.000000 -0.831332
vt 0.051051 -0.830436
vt 0.102039 -0.827751
vt 0.152901 -0.823279
vt 0.203575 -0.817026
vt 0.253999 -0.809000
vt 0.304110 -0.799211
vt 0.353848 -0.787670
vt 0.403149 -0.774391
vt 0.451955 -0.759392
vt 0.500205 -0.742691
vt 0.547839 -0.724307
vt 0.594800 -0.704265
vt 0.641028 -0.682587
vt 0.686468 -0.659302
vt 0.731063 -0.634438
vt 0.774759 -0.608025
vt 0.817502 -0.580095
vt 0.859239 -0.550684
vt 0.899918 -0.519827
vt 0.939491 -0.487563
vt 0.977908 -0.453930
vt 1.015121 -0.418971
vt 1.051086 -0.382729
vt 1.085757 -0.345247
vt 1.119093 -0.306573
vt 1.151051 -0.266753
vt 1.181594 -0.225837
vt 1.210683 -0.183874
vt 1.238282 -0.140918
vt 1.264358 -0.097020
vt 1.288878 -0.052235
vt 1.311812 -0.006617
vt 1.328331 0.031619
vt 1.341702 0.071066
vt 1.351836 0.111466
vt 1.358669 0.152553
vt 1.362154 0.194058
vt 1.362269 0.235710
vt 1.359013 0.277233
vt 1.352408 0.318358
vt 1.342496 0.358813
vt 1.329344 0.398333
vt 1.313037 0.436659
vt 1.293682 0.473541
vt 1.271406 0.508735
vt 1.246355 0.542011
vt 1.218693 0.573150
vt 1.188603 0.601949
vt 1.156280 0.628219
vt 1.121938 0.651788
vt 1.085802 0.672499
vt 1.048107 0.690219
vt 1.009103 0.704831
vt 0.969044 0.716238
vt 0.928194 0.724367
vt 0.886819 0.729163
vt 0.845192 0.730595
vt 0.803586 0.728655
vt 0.762274 0.723353
vt 0.721525 0.714727
vt 0.681609 0.702831
vt 0.642786 0.687744
vt 0.605311 0.669565
vt 0.569430 0.648413
vt 0.553538 0.638356
vt 0.537467 0.628585
vt 0.521225 0.619103
vt 0.504815 0.609914
vt 0.488244 0.601020
vt 0.471515 0.592425
vt 0.454636 0.584130
vt 0.437610 0.576139
vt 0.420445 0.568455
vt 0.403144 0.561079
vt 0.385714 0.554014
vt 0.368160 0.547262
vt 0.350488 0.540826
vt 0.332704 0.534707
vt 0.314813 0.528908
vt 0.296821 0.523430
vt 0.278733 0.518276
vt 0.260557 0.513446
vt 0.242297 0.508942
vt 0.223959 0.504766
vt 0.205549 0.500920
vt 0.187073 0.497404
vt 0.168537 0.494219
vt 0.149947 0.491366
vt 0.131309 0.488847
vt 0.112629 0.486663
vt 0.093913 0.484813
vt 0.075166 0.483299
vt 0.056396 0.482120
vt 0.037607 0.481279
vt 0.018807 0.480773
vt 0.000000 0.480605
vt -0.018807 0.480773
vt -0.037607 0.481279
vt -0.056396 0.482120
vt -0.075166 0.483299
vt -0.093913 0.484813
vt -0.112629 0.486663
vt -0.131309 0.488847
vt -0.149947 0.491366
vt -0.168537 0.494219
vt -0.187073 0.497404
vt -0.205549 0.500920
vt -0.223959 0.504766
vt -0.242297 0.508942
vt -0.260557 0.513446
vt -0.278733 0.518276
vt -0.296821 0.523430
vt -0.314813 0.528908
vt -0.332704 0.534707
vt -0.350488 0.540826
vt -0.368160 0.547262
vt -0.385714 0.554014
vt -0.403144 0.561079
vt -0.420445 0.568455
vt -0.437610 0.576139
vt -0.454636 0.584130
vt -0.471515 0.592425
vt -0.488244 0.601020
vt -0.504815 0.609914
vt -0.521225 0.619103
vt -0.537467 0.628585
vt -0.553538 0.638356
vt -0.569430 0.648413
vt -0.605311 0.669565
vt -0.642786 0.687744
vt -0.681609 0.702831
vt -0.721525 0.714727
vt -0.762274 0.723353
vt -0.803586 0.728655
vt -0.845192 0.730595
vt -0.886819 0.729163
vt -0.928194 0.724367
vt -0.969044 0.716238
vt -1.009103 0.704831
vt -1.048107 0.690219
vt -1.085802 0.672499
vt -1.121938 0.651788
vt -1.156280 0.628219
vt -1.188603 0.601949
vt -1.218693 0.573150
vt -1.246355 0.542011
vt -1.271406 0.508735
vt -1.293682 0.473541
vt -1.313037 0.436659
vt -1.329344 0.398333
vt -1.342496 0.358813
vt -1.352408 0.318358
vt -1.359013 0.277233
vt -1.362269 0.235710
vt -1.362154 0.194058
vt -1.358669 0.152553
vt -1.351836 0.111466
vt -1.341702 0.071066
vt -1.328331 0.031619
vt 0.000000 0.000000
f 1/1 2/2 195/195
f 1/1 195/195 194/194
f 2/2 3/3 196/196
f 2/2 196/196 195/195
f 3/3 4/4 197/197
f 3/3 197/197 196/196
f 4/4 5/5 198/198
f 4/4 198/198 197/197
f 5/5 6/6 199/199
f 5/5 199/199 198/198
f 6/6 7/7 200/200
f 6/6 200/200 199/199
f 7/7 8/8 201/201
f 7/7 201/201 200/200
f 8/8 9/9 202/202
f 8/8 202/202 201/201
f 9/9 10/10 203/203
f 9/9 203/203 202/202
f 10/10 11/11 204/204
f 10/10 204/204 203/203
f 11/11 12/12 205/205
f 11/11 205/205 204/204
f 12/12 13/13 206/206
f 12/12 206/206 205/205
f 13/13 14/14 207/207
f 13/13 207/207 206/206
f 14/14 15/15 208/208
f 14/14 208/208 207/207
f 15/15 16/16 209/209
f 15/15 209/209 208/208
f 16/16 17/17 210/210
f 16/16 210/210 209/209
f 17/17 18/18 211/211
f 17/17 211/211 210/210
f 18/18 19/19 212/212
f 18/18 212/212 211/211
f 19/19 20/20 213/213
f 19/19 213/213 212/212
f 20/20 21/21 214/214
f 20/20 214/214 213/213
f 21/21 22/22 215/215
f 21/21 215/215 214/214
f 22/22 23/23 216/216
f 22/22 216/216 215/215
f 23/23 24/24 217/217
f 23/23 217/217 216/216
f 24/24 25/25 218/218
f 24/24 218/218 217/217
f 25/25 26/26 219/219
f 25/25 219/219 218/218
f 26/26 27/27 220/220
f 26/26 220/220 219/219
f 27/27 28/28 221/221
f 27/27 221/221 220/220
f 28/28 29/29 222/222
f 28/28 222/222 221/221
f 29/29 30/30 223/223
f 29/29 223/223 222/222
f 30/30 31/31 224/224
f 30/30 224/224 223/223
f 31/31 32/32 225/225
f 31/31 225/225 224/224
f 32/32 33/33 226/226
f 32/32 226/226 225/225
f 33/33 34/34 227/227
f 33/33 227/227 226/226
f 34/34 35/35 228/228
f 34/34 228/228 227/227
f 35/35 36/36 229/229
f 35/35 229/229 228/228
f 36/36 37/37 230/230
f 36/36 230/230 229/229
f 37/37 38/38 231/231
f 37/37 231/231 230/230
f 38/38 39/39 232/232
f 38/38 232/232 231/231
f 39/39 40/40 233/233
f 39/39 233/233 232/232
f 40/40 41/41 234/234
f 40/40 234/234 233/233
f 41/41 42/42 235/235
f 41/41 235/235 234/234
f 42/42 43/43 236/236
f 42/42 236/236 235/235
f 43/43 44/44 237/237
f 43/43 237/237 236/236
f 44/44 45/45 238/238
f 44/44 238/238 237/237
f 45/45 46/46 239/239
f 45/45 239/239 238/238
f 46/46 47/47 240/240
f 46/46 240/240 239/239
f 47/47 48/48 241/241
f 47/47 241/241 240/240
f 48/48 49/49 242/242
f 48/48 242/242 241/241
f 49/49 50/50 243/243
f 49/49 243/243 242/242
f 50/50 51/51 244/244
f 50/50 244/244 243/243
f 51/51 52/52 245/245
f 51/51 245/245 244/244
f 52/52 53/53 246/246
f 52/52 246/246 245/245
f 53/53 54/54 247/247
f 53/53 247/247 246/246
f 54/54 55/55 248/248
f 54/54 248/248 247/247
f 55/55 56/56 249/249
f 55/55 249/249 248/248
f 56/56 57/57 250/250
f 56/56 250/250 249/249
f 57/57 58/58 251/251
f 57/57 251/251 250/250
f 58/58 59/59 252/252
f 58/58 252/252 251/251
f 59/59 60/60 253/253
f 59/59 253/253 252/252
f 60/60 61/61 254/254
f 60/60 254/254 253/253
f 61/61 62/62 255/255
f 61/61 255/255 254/254
f 62/62 63/63 256/256
f 62/62 256/256 255/255
f 63/63 64/64 257/257
f 63/63 257/257 256/256
f 64/64 65/65 258/258
f 64/64 258/258 257/257
f 65/65 66/66 259/259
f 65/65 259/259 258/258
f 66/66 67/67 260/260
f 66/66 260/260 259/259
f 67/67 68/68 261/261
f 67/67 261/261 260/260
f 68/68 69/69 262/262
f 68/68 262/262 261/261
f 69/69 70/70 263/263
f 69/69 263/263 262/262
f 70/70 71/71 264/264
f 70/70 264/264 263/263
f 71/71 72/72 265/265
f 71/71 265/265 264/264
f 72/72 73/73 266/266
f 72/72 266/266 265/265
f 73/73 74/74 267/267
f 73/73 267/267 266/266
f 74/74 75/75 268/268
f 74/74 268/268 267/267
f 75/75 76/76 269/269
f 75/75 269/269 268/268
f 76/76 77/77 270/270
f 76/76 270/270 269/269
f 77/77 78/78 271/271
f 77/77 271/271 270/270
f 78/78 79/79 272/272
f 78/78 272/272 271/271
f 79/79 80/80 273/273
f 79/79 273/273 272/272
f 80/80 81/81 274/274
f 80/80 274/274 273/273
f 81/81 82/82 275/275
f 81/81 275/275 274/274
f 82/82 83/83 276/276
f 82/82 276/276 275/275
f 83/83 84/84 277/277
f 83/83 277/277 276/276
f 84/84 85/85 278/278
f 84/84 278/278 277/277
f 85/85 86/86 279/279
f 85/85 279/279 278/278
f 86/86 87/87 280/280
f 86/86 280/280 279/279
f 87/87 88/88 281/281
f 87/87 281/281 280/280
f 88/88 89/89 282/282
f 88/88 282/282 281/281
f 89/89 90/90 283/283
f 89/89 283/283 282/282
f 90/90 91/91 284/284
f 90/90 284/284 283/283
f 91/91 92/92 285/285
f 91/91 285/285 284/284
f 92/92 93/93 286/286
f 92/92 286/286 285/285
f 93/93 94/94 287/287
f 93/93 287/287 286/286
f 94/94 95/95 288/288
f 94/94 288/288 287/287
f 95/95 96/96 289/289
f 95/95 289/289 288/288
f 96/96 97/97 290/290
f 96/96 290/290 289/289
f 97/97 98/98 291/291
f 97/97 291/291 290/290
f 98/98 99/99 292/292
f 98/98 292/292 291/291
f 99/99 100/100 293/293
f 99/99 293/293 292/292
f 100/100 101/101 294/294
f 100/100 294/294 293/293
f 101/101 102/102 295/295
f 101/101 295/295 294/294
f 102/102 103/103 296/296
f 102/102 296/296 295/295
f 103/103 104/104 297/297
f 103/103 297/297 296/296
f 104/104 105/105 298/298
f 104/104 298/298 297/297
f 105/105 106/106 299/299
f 105/105 299/299 298/298
f 106/106 107/107 300/300
f 106/106 300/300 299/299
f 107/107 108/108 301/301
f 107/107 301/301 300/300
f 108/108 109/109 302/302
f 108/108 302/302 301/301
f 109/109 110/110 303/303
f 109/109 303/303 302/302
f 110/110 111/111 304/304
f 110/110 304/304 303/303
f 111/111 112/112 305/305
f 111/111 305/305 304/304
f 112/112 113/113 306/306
f 112/112 306/306 305/305
f 113/113 114/114 307/307
f 113/113 307/307 306/306
f 114/114 115/115 308/308
f 114/114 308/308 307/307
f 115/115 116/116 309/309
f 115/115 309/309 308/308
f 116/116 117/117 310/310
f 116/116 310/310 309/309
f 117/117 118/118 311/311
f 117/117 311/311 310/310
f 118/118 119/119 312/312
f 118/118 312/312 311/311
f 119/119 120/120 313/313
f 119/119 313/313 312/312
f 120/120 121/121 314/314
f 120/120 314/314 313/313
f 121/121 122/122 315/315
f 121/121 315/315 314/314
f 122/122 123/123 316/316
f 122/122 316/316 315/315
f 123/123 124/124 317/317
f 123/123 317/317 316/316
f 124/124 125/125 318/318
f 124/124 318/318 317/317
f 125/125 126/126 319/319
f 125/125 319/319 318/318
f 126/126 127/127 320/320
f 126/126 320/320 319/319
f 127/127 128/128 321/321
f 127/127 321/321 320/320
f 128/128 129/129 322/322
f 128/128 322/322 321/321
f 129/129 130/130 323/323
f 129/129 323/323 322/322
f 130/130 131/131 324/324
f 130/130 324/324 323/323
f 131/131 132/132 325/325
f 131/131 325/325 324/324
f 132/132 133/133 326/326
f 132/132 326/326 325/325
f 133/133 134/134 327/327
f 133/133 327/327 326/326
f 134/134 135/135 328/328
f 134/134 328/328 327/327
f 135/135 136/136 329/329
f 135/135 329/329 328/328
f 136/136 137/137 330/330
f 136/136 330/330 329/329
f 137/137 138/138 331/331
f 137/137 331/331 330/330
f 138/138 139/139 332/332
f 138/138 332/332 331/331
f 139/139 140/140 333/333
f 139/139 333/333 332/332
f 140/140 141/141 334/334
f 140/140 334/334 333/333
f 141/141 142/142 335/335
f 141/141 335/335 334/334
f 142/142 143/143 336/336
f 142/142 336/336 335/335
f 143/143 144/144 337/337
f 143/143 337/337 336/336
f 144/144 145/145 338/338
f 144/144 338/338 337/337
f 145/145 146/146 339/339
f 145/145 339/339 338/338
f 146/146 147/147 340/340
f 146/146 340/340 339/339
f 147/147 148/148 341/341
f 147/147 341/341 340/340
f 148/148 149/149 342/342
f 148/148 342/342 341/341
f 149/149 150/150 343/343
f 149/149 343/343 342/342
f 150/150 151/151 344/344
f 150/150 344/344 343/343
f 151/151 152/152 345/345
f 151/151 345/345 344/344
f 152/152 153/153 346/346
f 152/152 346/346 345/345
f 153/153 154/154 347/347
f 153/153 347/347 346/346
f 154/154 155/155 348/348
f 154/154 348/348 347/347
f 155/155 156/156 349/349
f 155/155 349/349 348/348
f 156/156 157/157 350/350
f 156/156 350/350 349/349
f 157/157 158/158 351/351
f 157/157 351/351 350/350
f 158/158 159/159 352/352
f 158/158 352/352 351/351
f 159/159 160/160 353/353
f 159/159 353/353 352/352
f 160/160 161/161 354/354
f 160/160 354/354 353/353
f 161/161 162/162 355/355
f 161/161 355/355 354/354
f 162/162 163/163 356/356
f 162/162 356/356 355/355
f 163/163 164/164 357/357
f 163/163 357/357 356/356
f 164/164 165/165 358/358
f 164/164 358/358 357/357
f 165/165 166/166 359/359
f 165/165 359/359 358/358
f 166/166 167/167 360/360
f 166/166 360/360 359/359
f 167/167 168/168 361/361
f 167/167 361/361 360/360
f 168/168 169/169 362/362
f 168/168 362/362 361/361
f 169/169 170/170 363/363
f 169/169 363/363 362/362
f 170/170 171/171 364/364
f 170/170 364/364 363/363
f 171/171 172/172 365/365
f 171/171 365/365 364/364
f 172/172 173/173 366/366
f 172/172 366/366 365/365
f 173/173 174/174 367/367
f 173/173 367/367 366/366
f 174/174 175/175 368/368
f 174/174 368/368 367/367
f 175/175 176/176 369/369
f 175/175 369/369 368/368
f 176/176 177/177 370/370
f 176/176 370/370 369/369
f 177/177 178/178 371/371
f 177/177 371/371 370/370
f 178/178 179/179 372/372
f 178/178 372/372 371/371
f 179/179 180/180 373/373
f 179/179 373/373 372/372
f 180/180 181/181 374/374
f 180/180 374/374 373/373
f 181/181 182/182 375/375
f 181/181 375/375 374/374
f 182/182 183/183 376/376
f 182/182 376/376 375/375
f 183/183 184/184 377/377
f 183/183 377/377 376/376
f 184/184 185/185 378/378
f 184/184 378/378 377/377
f 185/185 186/186 379/379
f 185/185 379/379 378/378
f 186/186 187/187 380/380
f 186/186 380/380 379/379
f 187/187 188/188 381/381
f 187/187 381/381 380/380
f 188/188 189/189 382/382
f 188/188 382/382 381/381
f 189/189 190/190 383/383
f 189/189 383/383 382/382
f 190/190 191/191 384/384
f 190/190 384/384 383/383
f 191/191 192/192 385/385
f 191/191 385/385 384/384
f 192/192 193/193 386/386
f 192/192 386/386 385/385
f 194/194 195/195 388/388
f 194/194 388/388 387/387
f 195/195 196/196 389/389
f 195/195 389/389 388/388
f 196/196 197/197 390/390
f 196/196 390/390 389/389
f 197/197 198/198 391/391
f 197/197 391/391 390/390
f 198/198 199/199 392/392
f 198/198 392/392 391/391
f 199/199 200/200 393/393
f 199/199 393/393 392/392
f 200/200 201/201 394/394
f 200/200 394/394 393/393
f 201/201 202/202 395/395
f 201/201 395/395 394/394
f 202/202 203/203 396/396
f 202/202 396/396 395/395
f 203/203 204/204 397/397
f 203/203 397/397 396/396
f 204/204 205/205 398/398
f 204/204 398/398 397/397
f 205/205 206/206 399/399
f 205/205 399/399 398/398
f 206/206 207/207 400/400
f 206/206 400/400 399/399
f 207/207 208/208 401/401
f 207/207 401/401 400/400
f 208/208 209/209 402/402
f 208/208 402/402 401/401
f 209/209 210/210 403/403
f 209/209 403/403 402/402
f 210/210 211/211 404/404
f 210/210 404/404 403/403
f 211/211 212/212 405/405
f 211/211 405/405 404/404
f 212/212 213/213 406/406
f 212/212 406/406 405/405
f 213/213 214/214 407/407
f 213/213 407/407 406/406
f 214/214 215/215 408/408
f 214/214 408/408 407/407
f 215/215 216/216 409/409
f 215/215 409/409 408/408
f 216/216 217/217 410/410
f 216/216 410/410 409/409
f 217/217 218/218 411/411
f 217/217 411/411 410/410
f 218/218 219/219 412/412
f 218/218 412/412 411/411
f 219/219 220/220 413/413
f 219/219 413/413 412/412
f 220/220 221/221 414/414
f 220/220 414/414 413/413
f 221/221 222/222 415/415
f 221/221 415/415 414/414
f 222/222 223/223 416/416
f 222/222 416/416 415/415
f 223/223 224/224 417/417
f 223/223 417/417 416/416
f 224/224 225/225 418/418
f 224/224 418/418 417/417
f 225/225 226/226 419/419
f 225/225 419/419 418/418
f 226/226 227/227 420/420
f 226/226 420/420 419/419
f 227/227 228/228 421/421
f 227/227 421/421 420/420
f 228/228 229/229 422/422
f 228/228 422/422 421/421
f 229/229 230/230 423/423
f 229/229 423/423 422/422
f 230/230 231/231 424/424
f 230/230 424/424 423/423
f 231/231 232/232 425/425
f 231/231 425/425 424/424
f 232/232 233/233 426/426
f 232/232 426/426 425/425
f 233/233 234/234 427/427
f 233/233 427/427 426/426
f 234/234 235/235 428/428
f 234/234 428/428 427/427
f 235/235 236/236 429/429
f 235/235 429/429 428/428
f 236/236 237/237 430/430
f 236/236 430/430 429/429
f 237/237 238/238 431/431
f 237/237 431/431 430/430
f 238/238 239/239 432/432
f 238/238 432/432 431/431
f 239/239 240/240 433/433
f 239/239 433/433 432/432
f 240/240 241/241 434/434
f 240/240 434/434 433/433
f 241/241 242/242 435/435
f 241/241 435/435 434/434
f 242/242 243/243 436/436
f 242/242 436/436 435/435
f 243/243 244/244 437/437
f 243/243 437/437 436/436
f 244/244 245/245 438/438
f 244/244 438/438 437/437
f 245/245 246/246 439/439
f 245/245 439/439 438/438
f 246/246 247/247 440/440
f 246/246 440/440 439/439
f 247/247 248/248 441/441
f 247/247 441/441 440/440
f 248/248 249/249 442/442
f 248/248 442/442 441/441
f 249/249 250/250 443/443
f 249/249 443/443 442/442
f 250/250 251/251 444/444
f 250/250 444/444 443/443
f 251/251 252/252 445/445
f 251/251 445/445 444/444
f 252/252 253/253 446/446
f 252/252 446/446 445/445
f 253/253 254/254 447/447
f 253/253 447/447 446/446
f 254/254 255/255 448/448
f 254/254 448/448 447/447
f 255/255 256/256 449/449
f 255/255 449/449 448/448
f 256/256 257/257 450/450
f 256/256 450/450 449/449
f 257/257 258/258 451/451
f 257/257 451/451 450/450
f 258/258 259/259 452/452
f 258/258 452/452 451/451
f 259/259 260/260 453/453
f 259/259 453/453 452/452
f 260/260 261/261 454/454
f 260/260 454/454 453/453
f 261/261 262/262 455/455
f 261/261 455/455 454/454
f 262/262 263/263 456/456
f 262/262 456/456 455/455
f 263/263 264/264 457/457
f 263/263 457/457 456/456
f 264/264 265/265 458/458
f 264/264 458/458 457/457
f 265/265 266/266 459/459
f 265/265 459/459 458/458
f 266/266 267/267 460/460
f 266/266 460/460 459/459
f 267/267 268/268 461/461
f 267/267 461/461 460/460
f 268/268 269/269 462/462
f 268/268 462/462 461/461
f 269/269 270/270 463/463
f 269/269 463/463 462/462
f 270/270 271/271 464/464
f 270/270 464/464 463/463
f 271/271 272/272 465/465
f 271/271 465/465 464/464
f 272/272 273/273 466/466
f 272/272 466/466 465/465
f 273/273 274/274 467/467
f 273/273 467/467 466/466
f 274/274 275/275 468/468
f 274/274 468/468 467/467
f 275/275 276/276 469/469
f 275/275 469/469 468/468
f 276/276 277/277 470/470
f 276/276 470/470 469/469
f 277/277 278/278 471/471
f 277/277 471/471 470/470
f 278/278 279/279 472/472
f 278/278 472/472 471/471
f 279/279 280/280 473/473
f 279/279 473/473 472/472
f 280/280 281/281 474/474
f 280/280 474/474 473/473
f 281/281 282/282 475/475
f 281/281 475/475 474/474
f 282/282 283/283 476/476
f 282/282 476/476 475/475
f 283/283 284/284 477/477
f 283/283 477/477 476/476
f 284/284 285/285 478/478
f 284/284 478/478 477/477
f 285/285 286/286 479/479
f 285/285 479/479 478/478
f 286/286 287/287 480/480
f 286/286 480/480 479/479
f 287/287 288/288 481/481
f 287/287 481/481 480/480
f 288/288 289/289 482/482
f 288/288 482/482 481/481
f 289/289 290/290 483/483
f 289/289 483/483 482/482
f 290/290 291/291 484/484
f 290/290 484/484 483/483
f 291/291 292/292 485/485
f 291/291 485/485 484/484
f 292/292 293/293 486/486
f 292/292 486/486 485/485
f 293/293 294/294 487/487
f 293/293 487/487 486/486
f 294/294 295/295 488/488
f 294/294 488/488 487/487
f 295/295 296/296 489/489
f 295/295 489/489 488/488
f 296/296 297/297 490/490
f 296/296 490/490 489/489
f 297/297 298/298 491/491
f 297/297 491/491 490/490
f 298/298 299/299 492/492
f 298/298 492/492 491/491
f 299/299 300/300 493/493
f 299/299 493/493 492/492
f 300/300 301/301 494/494
f 300/300 494/494 493/493
f 301/301 302/302 495/495
f 301/301 495/495 494/494
f 302/302 303/303 496/496
f 302/302 496/496 495/495
f 303/303 304/304 497/497
f 303/303 497/497 496/496
f 304/304 305/305 498/498
f 304/304 498/498 497/497
f 305/305 306/306 499/499
f 305/305 499/499 498/498
f 306/306 307/307 500/500
f 306/306 500/500 499/499
f 307/307 308/308 501/501
f 307/307 501/501 500/500
f 308/308 309/309 502/502
f 308/308 502/502 501/501
f 309/309 310/310 503/503
f 309/309 503/503 502/502
f 310/310 311/311 504/504
f 310/310 504/504 503/503
f 311/311 312/312 505/505
f 311/311 505/505 504/504
f 312/312 313/313 506/506
f 312/312 506/506 505/505
f 313/313 314/314 507/507
f 313/313 507/507 506/506
f 314/314 315/315 508/508
f 314/314 508/508 507/507
f 315/315 316/316 509/509
f 315/315 509/509 508/508
f 316/316 317/317 510/510
f 316/316 510/510 509/509
f 317/317 318/318 511/511
f 317/317 511/511 510/510
f 318/318 319/319 512/512
f 318/318 512/512 511/511
f 319/319 320/320 513/513
f 319/319 513/513 512/512
f 320/320 321/321 514/514
f 320/320 514/514 513/513
f 321/321 322/322 515/515
f 321/321 515/515 514/514
f 322/322 323/323 516/516
f 322/322 516/516 515/515
f 323/323 324/324 517/517
f 323/323 517/517 516/516
f 324/324 325/325 518/518
f 324/324 518/518 517/517
f 325/325 326/326 519/519
f 325/325 519/519 518/518
f 326/326 327/327 520/520
f 326/326 520/520 519/519
f 327/327 328/328 521/521
f 327/327 521/521 520/520
f 328/328 329/329 522/522
f 328/328 522/522 521/521
f 329/329 330/330 523/523
f 329/329 523/523 522/522
f 330/330 331/331 524/524
f 330/330 524/524 523/523
f 331/331 332/332 525/525
f 331/331 525/525 524/524
f 332/332 333/333 526/526
f 332/332 526/526 525/525
f 333/333 334/334 527/527
f 333/333 527/527 526/526
f 334/334 335/335 528/528
f 334/334 528/528 527/527
f 335/335 336/336 529/529
f 335/335 529/529 528/528
f 336/336 337/337 530/530
f 336/336 530/530 529/529
f 337/337 338/338 531/531
f 337/337 531/531 530/530
f 338/338 339/339 532/532
f 338/338 532/532 531/531
f 339/339 340/340 533/533
f 339/339 533/533 532/532
f 340/340 341/341 534/534
f 340/340 534/534 533/533
f 341/341 342/342 535/535
f 341/341 535/535 534/534
f 342/342 343/343 536/536
f 342/342 536/536 535/535
f 343/343 344/344 537/537
f 343/343 537/537 536/536
f 344/344 345/345 538/538
f 344/344 538/538 537/537
f 345/345 346/346 539/539
f 345/345 539/539 538/538
f 346/346 347/347 540/540
f 346/346 540/540 539/539
f 347/347 348/348 541/541
f 347/347 541/541 540/540
f 348/348 349/349 542/542
f 348/348 542/542 541/541
f 349/349 350/350 543/543
f 349/349 543/543 542/542
f 350/350 351/351 544/544
f 350/350 544/544 543/543
f 351/351 352/352 545/545
f 351/351 545/545 544/544
f 352/352 353/353 546/546
f 352/352 546/546 545/545
f 353/353 354/354 547/547
f 353/353 547/547 546/546
f 354/354 355/355 548/548
f 354/354 548/548 547/547
f 355/355 356/356 549/549
f 355/355 549/549 548/548
f 356/356 357/357 550/550
f 356/356 550/550 549/549
f 357/357 358/358 551/551
f 357/357 551/551 550/550
f 358/358 359/359 552/552
f 358/358 552/552 551/551
f 359/359 360/360 553/553
f 359/359 553/553 552/552
f 360/360 361/361 554/554
f 360/360 554/554 553/553
f 361/361 362/362 555/555
f 361/361 555/555 554/554
f 362/362 363/363 556/556
f 362/362 556/556 555/555
f 363/363 364/364 557/557
f 363/363 557/557 556/556
f 364/364 365/365 558/558
f 364/364 558/558 557/557
f 365/365 366/366 559/559
f 365/365 559/559 558/558
f 366/366 367/367 560/560
f 366/366 560/560 559/559
f 367/367 368/368 561/561
f 367/367 561/561 560/560
f 368/368 369/369 562/562
f 368/368 562/562 561/561
f 369/369 370/370 563/563
f 369/369 563/563 562/562
f 370/370 371/371 564/564
f 370/370 564/564 563/563
f 371/371 372/372 565/565
f 371/371 565/565 564/564
f 372/372 373/373 566/566
f 372/372 566/566 565/565
f 373/373 374/374 567/567
f 373/373 567/567 566/566
f 374/374 375/375 568/568
f 374/374 568/568 567/567
f 375/375 376/376 569/569
f 375/375 569/569 568/568
f 376/376 377/377 570/570
f 376/376 570/570 569/569
f 377/377 378/378 571/571
f 377/377 571/571 570/570
f 378/378 379/379 572/572
f 378/378 572/572 571/571
f 379/379 380/380 573/573
f 379/379 573/573 572/572
f 380/380 381/381 574/574
f 380/380 574/574 573/573
f 381/381 382/382 575/575
f 381/381 575/575 574/574
f 382/382 383/383 576/576
f 382/382 576/576 575/575
f 383/383 384/384 577/577
f 383/383 577/577 576/576
f 384/384 385/385 578/578
f 384/384 578/578 577/577
f 385/385 386/386 579/579
f 385/385 579/579 578/578
f 387/387 388/388 581/581
f 387/387 581/581 580/580
f 388/388 389/389 582/582
f 388/388 582/582 581/581
f 389/389 390/390 583/583
f 389/389 583/583 582/582
f 390/390 391/391 584/584
f 390/390 584/584 583/583
f 391/391 392/392 585/585
f 391/391 585/585 584/584
f 392/392 393/393 586/586
f 392/392 586/586 585/585
f 393/393 394/394 587/587
f 393/393 587/587 586/586
f 394/394 395/395 588/588
f 394/394 588/588 587/587
f 395/395 396/396 589/589
f 395/395 589/589 588/588
f 396/396 397/397 590/590
f 396/396 590/590 589/589
f 397/397 398/398 591/591
f 397/397 591/591 590/590
f 398/398 399/399 592/592
f 398/398 592/592 591/591
f 399/399 400/400 593/593
f 399/399 593/593 592/592
f 400/400 401/401 594/594
f 400/400 594/594 593/593
f 401/401 402/402 595/595
f 401/401 595/595 594/594
f 402/402 403/403 596/596
f 402/402 596/596 595/595
f 403/403 404/404 597/597
f 403/403 597/597 596/596
f 404/404 405/405 598/598
f 404/404 598/598 597/597
f 405/405 406/406 599/599
f 405/405 599/599 598/598
f 406/406 407/407 600/600
f 406/406 600/600 599/599
f 407/407 408/408 601/601
f 407/407 601/601 600/600
f 408/408 409/409 602/602
f 408/408 602/602 601/601
f 409/409 410/410 603/603
f 409/409 603/603 602/602
f 410/410 411/411 604/604
f 410/410 604/604 603/603
f 411/411 412/412 605/605
f 411/411 605/605 604/604
f 412/412 413/413 606/606
f 412/412 606/606 605/605
f 413/413 414/414 607/607
f 413/413 607/607 606/606
f 414/414 415/415 608/608
f 414/414 608/608 607/607
f 415/415 416/416 609/609
f 415/415 609/609 608/608
f 416/416 417/417 610/610
f 416/416 610/610 609/609
f 417/417 418/418 611/611
f 417/417 611/611 610/610
f 418/418 419/419 612/612
f 418/418 612/612 611/611
f 419/419 420/420 613/613
f 419/419 613/613 612/612
f 420/420 421/421 614/614
f 420/420 614/614 613/613
f 421/421 422/422 615/615
f 421/421 615/615 614/614
f 422/422 423/423 616/616
f 422/422 616/616 615/615
f 423/423 424/424 617/617
f 423/423 617/617 616/616
f 424/424 425/425 618/618
f 424/424 618/618 617/617
f 425/425 426/426 619/619
f 425/425 619/619 618/618
f 426/426 427/427 620/620
f 426/426 620/620 619/619
f 427/427 428/428 621/621
f 427/427 621/621 620/620
f 428/428 429/429 622/622
f 428/428 622/622 621/621
f 429/429 430/430 623/623
f 429/429 623/623 622/622
f 430/430 431/431 624/624
f 430/430 624/624 623/623
f 431/431 432/432 625/625
f 431/431 625/625 624/624
f 432/432 433/433 626/626
f 432/432 626/626 625/625
f 433/433 434/434 627/627
f 433/433 627/627 626/626
f 434/434 435/435 628/628
f 434/434 628/628 627/627
f 435/435 436/436 629/629
f 435/435 629/629 628/628
f 436/436 437/437 630/630
f 436/436 630/630 629/629
f 437/437 438/438 631/631
f 437/437 631/631 630/630
f 438/438 439/439 632/632
f 438/438 632/632 631/631
f 439/439 440/440 633/633
f 439/439 633/633 632/632
f 440/440 441/441 634/634
f 440/440 634/634 633/633
f 441/441 442/442 635/635
f 441/441 635/635 634/634
f 442/442 443/443 636/636
f 442/442 636/636 635/635
f 443/443 444/444 637/637
f 443/443 637/637 636/636
f 444/444 445/445 638/638
f 444/444 638/638 637/637
f 445/445 446/446 639/639
f 445/445 639/639 638/638
f 446/446 447/447 640/640
f 446/446 640/640 639/639
f 447/447 448/448 641/641
f 447/447 641/641 640/640
f 448/448 449/449 642/642
f 448/448 642/642 641/641
f 449/449 450/450 643/643
f 449/449 643/643 642/642
f 450/450 451/451 644/644
f 450/450 644/644 643/643
f 451/451 452/452 645/645
f 451/451 645/645 644/644
f 452/452 453/453 646/646
f 452/452 646/646 645/645
f 453/453 454/454 647/647
f 453/453 647/647 646/646
f 454/454 455/455 648/648
f 454/454 648/648 647/647
f 455/455 456/456 649/649
f 455/455 649/649 648/648
f 456/456 457/457 650/650
f 456/456 650/650 649/649
f 457/457 458/458 651/651
f 457/457 651/651 650/650
f 458/458 459/459 652/652
f 458/458 652/652 651/651
f 459/459 460/460 653/653
f 459/459 653/653 652/652
f 460/460 461/461 654/654
f 460/460 654/654 653/653
f 461/461 462/462 655/655
f 461/461 655/655 654/654
f 462/462 463/463 656/656
f 462/462 656/656 655/655
f 463/463 464/464 657/657
f 463/463 657/657 656/656
f 464/464 465/465 658/658
f 464/464 658/658 657/657
f 465/465 466/466 659/659
f 465/465 659/659 658/658
f 466/466 467/467 660/660
f 466/466 660/660 659/659
f 467/467 468/468 661/661
f 467/467 661/661 660/660
f 468/468 469/469 662/662
f 468/468 662/662 661/661
f 469/469 470/470 663/663
f 469/469 663/663 662/662
f 470/470 471/471 664/664
f 470/470 664/664 663/663
f 471/471 472/472 665/665
f 471/471 665/665 664/664
f 472/472 473/473 666/666
f 472/472 666/666 665/665
f 473/473 474/474 667/667
f 473/473 667/667 666/666
f 474/474 475/475 668/668
f 474/474 668/668 667/667
f 475/475 476/476 669/669
f 475/475 669/669 668/668
f 476/476 477/477 670/670
f 476/476 670/670 669/669
f 477/477 478/478 671/671
f 477/477 671/671 670/670
f 478/478 479/479 672/672
f 478/478 672/672 671/671
f 479/479 480/480 673/673
f 479/479 673/673 672/672
f 480/480 481/481 674/674
f 480/480 674/674 673/673
f 481/481 482/482 675/675
f 481/481 675/675 674/674
f 482/482 483/483 676/676
f 482/482 676/676 675/675
f 483/483 484/484 677/677
f 483/483 677/677 676/676
f 484/484 485/485 678/678
f 484/484 678/678 677/677
f 485/485 486/486 679/679
f 485/485 679/679 678/678
f 486/486 487/487 680/680
f 486/486 680/680 679/679
f 487/487 488/488 681/681
f 487/487 681/681 680/680
f 488/488 489/489 682/682
f 488/488 682/682 681/681
f 489/489 490/490 683/683
f 489/489 683/683 682/682
f 490/490 491/491 684/684
f 490/490 684/684 683/683
f 491/491 492/492 685/685
f 491/491 685/685 684/684
f 492/492 493/493 686/686
f 492/492 686/686 685/685
f 493/493 494/494 687/687
f 493/493 687/687 686/686
f 494/494 495/495 688/688
f 494/494 688/688 687/687
f 495/495 496/496 689/689
f 495/495 689/689 688/688
f 496/496 497/497 690/690
f 496/496 690/690 689/689
f 497/497 498/498 691/691
f 497/497 691/691 690/690
f 498/498 499/499 692/692
f 498/498 692/692 691/691
f 499/499 500/500 693/693
f 499/499 693/693 692/692
f 500/500 501/501 694/694
f 500/500 694/694 693/693
f 501/501 502/502 695/695
f 501/501 695/695 694/694
f 502/502 503/503 696/696
f 502/502 696/696 695/695
f 503/503 504/504 697/697
f 503/503 697/697 696/696
f 504/504 505/505 698/698
f 504/504 698/698 697/697
f 505/505 506/506 699/699
f 505/505 699/699 698/698
f 506/506 507/507 700/700
f 506/506 700/700 699/699
f 507/507 508/508 701/701
f 507/507 701/701 700/700
f 508/508 509/509 702/702
f 508/508 702/702 701/701
f 509/509 510/510 703/703
f 509/509 703/703 702/702
f 510/510 511/511 704/704
f 510/510 704/704 703/703
f 511/511 512/512 705/705
f 511/511 705/705 704/704
f 512/512 513/513 706/706
f 512/512 706/706 705/705
f 513/513 514/514 707/707
f 513/513 707/707 706/706
f 514/514 515/515 708/708
f 514/514 708/708 707/707
f 515/515 516/516 709/709
f 515/515 709/709 708/708
f 516/516 517/517 710/710
f 516/516 710/710 709/709
f 517/517 518/518 711/711
f 517/517 711/711 710/710
f 518/518 519/519 712/712
f 518/518 712/712 711/711
f 519/519 520/520 713/713
f 519/519 713/713 712/712
f 520/520 521/521 714/714
f 520/520 714/714 713/713
f 521/521 522/522 715/715
f 521/521 715/715 714/714
f 522/522 523/523 716/716
f 522/522 716/716 715/715
f 523/523 524/524 717/717
f 523/523 717/717 716/716
f 524/524 525/525 718/718
f 524/524 718/718 717/717
f 525/525 526/526 719/719
f 525/525 719/719 718/718
f 526/526 527/527 720/720
f 526/526 720/720 719/719
f 527/527 528/528 721/721
f 527/527 721/721 720/720
f 528/528 529/529 722/722
f 528/528 722/722 721/721
f 529/529 530/530 723/723
f 529/529 723/723 722/722
f 530/530 531/531 724/724
f 530/530 724/724 723/723
f 531/531 532/532 725/725
f 531/531 725/725 724/724
f 532/532 533/533 726/726
f 532/532 726/726 725/725
f 533/533 534/534 727/727
f 533/533 727/727 726/726
f 534/534 535/535 728/728
f 534/534 728/728 727/727
f 535/535 536/536 729/729
f 535/535 729/729 728/728
f 536/536 537/537 730/730
f 536/536 730/730 729/729
f 537/537 538/538 731/731
f 537/537 731/731 730/730
f 538/538 539/539 732/732
f 538/538 732/732 731/731
f 539/539 540/540 733/733
f 539/539 733/733 732/732
f 540/540 541/541 734/734
f 540/540 734/734 733/733
f 541/541 542/542 735/735
f 541/541 735/735 734/734
f 542/542 543/543 736/736
f 542/542 736/736 735/735
f 543/543 544/544 737/737
f 543/543 737/737 736/736
f 544/544 545/545 738/738
f 544/544 738/738 737/737
f 545/545 546/546 739/739
f 545/545 739/739 738/738
f 546/546 547/547 740/740
f 546/546 740/740 739/739
f 547/547 548/548 741/741
f 547/547 741/741 740/740
f 548/548 549/549 742/742
f 548/548 742/742 741/741
f 549/549 550/550 743/743
f 549/549 743/743 742/742
f 550/550 551/551 744/744
f 550/550 744/744 743/743
f 551/551 552/552 745/745
f 551/551 745/745 744/744
f 552/552 553/553 746/746
f 552/552 746/746 745/745
f 553/553 554/554 747/747
f 553/553 747/747 746/746
f 554/554 555/555 748/748
f 554/554 748/748 747/747
f 555/555 556/556 749/749
f 555/555 749/749 748/748
f 556/556 557/557 750/750
f 556/556 750/750 749/749
f 557/557 558/558 751/751
f 557/557 751/751 750/750
f 558/558 559/559 752/752
f 558/558 752/752 751/751
f 559/559 560/560 753/753
f 559/559 753/753 752/752
f 560/560 561/561 754/754
f 560/560 754/754 753/753
f 561/561 562/562 755/755
f 561/561 755/755 754/754
f 562/562 563/563 756/756
f 562/562 756/756 755/755
f 563/563 564/564 757/757
f 563/563 757/757 756/756
f 564/564 565/565 758/758
f 564/564 758/758 757/757
f 565/565 566/566 759/759
f 565/565 759/759 758/758
f 566/566 567/567 760/760
f 566/566 760/760 759/759
f 567/567 568/568 761/761
f 567/567 761/761 760/760
f 568/568 569/569 762/762
f 568/568 762/762 761/761
f 569/569 570/570 763/763
f 569/569 763/763 762/762
f 570/570 571/571 764/764
f 570/570 764/764 763/763
f 571/571 572/572 765/765
f 571/571 765/765 764/764
f 572/572 573/573 766/766
f 572/572 766/766 765/765
f 573/573 574/574 767/767
f 573/573 767/767 766/766
f 574/574 575/575 768/768
f 574/574 768/768 767/767
f 575/575 576/576 769/769
f 575/575 769/769 768/768
f 576/576 577/577 770/770
f 576/576 770/770 769/769
f 577/577 578/578 771/771
f 577/577 771/771 770/770
f 578/578 579/579 772/772
f 578/578 772/772 771/771
f 773/773 774/774 965/965
f 774/774 775/775 965/965
f 775/775 776/776 965/965
f 776/776 777/777 965/965
f 777/777 778/778 965/965
f 778/778 779/779 965/965
f 779/779 780/780 965/965
f 780/780 781/781 965/965
f 781/781 782/782 965/965
f 782/782 783/783 965/965
f 783/783 784/784 965/965
f 784/784 785/785 965/965
f 785/785 786/786 965/965
f 786/786 787/787 965/965
f 787/787 788/788 965/965
f 788/788 789/789 965/965
f 789/789 790/790 965/965
f 790/790 791/791 965/965
f 791/791 792/792 965/965
f 792/792 793/793 965/965
f 793/793 794/794 965/965
f 794/794 795/795 965/965
f 795/795 796/796 965/965
f 796/796 797/797 965/965
f 797/797 798/798 965/965
f 798/798 799/799 965/965
f 799/799 800/800 965/965
f 800/800 801/801 965/965
f 801/801 802/802 965/965
f 802/802 803/803 965/965
f 803/803 804/804 965/965
f 804/804 805/805 965/965
f 805/805 806/806 965/965
f 806/806 807/807 965/965
f 807/807 808/808 965/965
f 808/808 809/809 965/965
f 809/809 810/810 965/965
f 810/810 811/811 965/965
f 811/811 812/812 965/965
f 812/812 813/813 965/965
f 813/813 814/814 965/965
f 814/814 815/815 965/965
f 815/815 816/816 965/965
f 816/816 817/817 965/965
f 817/817 818/818 965/965
f 818/818 819/819 965/965
f 819/819 820/820 965/965
f 820/820 821/821 965/965
f 821/821 822/822 965/965
f 822/822 823/823 965/965
f 823/823 824/824 965/965
f 824/824 825/825 965/965
f 825/825 826/826 965/965
f 826/826 827/827 965/965
f 827/827 828/828 965/965
f 828/828 829/829 965/965
f 829/829 830/830 965/965
f 830/830 831/831 965/965
f 831/831 832/832 965/965
f 832/832 833/833 965/965
f 833/833 834/834 965/965
f 834/834 835/835 965/965
f 835/835 836/836 965/965
f 836/836 837/837 965/965
f 837/837 838/838 965/965
f 838/838 839/839 965/965
f 839/839 840/840 965/965
f 840/840 841/841 965/965
f 841/841 842/842 965/965
f 842/842 843/843 965/965
f 843/843 844/844 965/965
f 844/844 845/845 965/965
f 845/845 846/846 965/965
f 846/846 847/847 965/965
f 847/847 848/848 965/965
f 848/848 849/849 965/965
f 849/849 850/850 965/965
f 850/850 851/851 965/965
f 851/851 852/852 965/965
f 852/852 853/853 965/965
f 853/853 854/854 965/965
f 854/854 855/855 965/965
f 855/855 856/856 965/965
f 856/856 857/857 965/965
f 857/857 858/858 965/965
f 858/858 859/859 965/965
f 859/859 860/860 965/965
f 860/860 861/861 965/965
f 861/861 862/862 965/965
f 862/862 863/863 965/965
f 863/863 864/864 965/965
f 864/864 865/865 965/965
f 865/865 866/866 965/965
f 866/866 867/867 965/965
f 867/867 868/868 965/965
f 868/868 869/869 965/965
f 869/869 870/870 965/965
f 870/870 871/871 965/965
f 871/871 872/872 965/965
f 872/872 873/873 965/965
f 873/873 874/874 965/965
f 874/874 875/875 965/965
f 875/875 876/876 965/965
f 876/876 877/877 965/965
f 877/877 878/878 965/965
f 878/878 879/879 965/965
f 879/879 880/880 965/965
f 880/880 881/881 965/965
f 881/881 882/882 965/965
f 882/882 883/883 965/965
f 883/883 884/884 965/965
f 884/884 885/885 965/965
f 885/885 886/886 965/965
f 886/886 887/887 965/965
f 887/887 888/888 965/965
f 888/888 889/889 965/965
f 889/889 890/890 965/965
f 890/890 891/891 965/965
f 891/891 892/892 965/965
f 892/892 893/893 965/965
f 893/893 894/894 965/965
f 894/894 895/895 965/965
f 895/895 896/896 965/965
f 896/896 897/897 965/965
f 897/897 898/898 965/965
f 898/898 899/899 965/965
f 899/899 900/900 965/965
f 900/900 901/901 965/965
f 901/901 902/902 965/965
f 902/902 903/903 965/965
f 903/903 904/904 965/965
f 904/904 905/905 965/965
f 905/905 906/906 965/965
f 906/906 907/907 965/965
f 907/907 908/908 965/965
f 908/908 909/909 965/965
f 909/909 910/910 965/965
f 910/910 911/911 965/965
f 911/911 912/912 965/965
f 912/912 913/913 965/965
f 913/913 914/914 965/965
f 914/914 915/915 965/965
f 915/915 916/916 965/965
f 916/916 917/917 965/965
f 917/917 918/918 965/965
f 918/918 919/919 965/965
f 919/919 920/920 965/965
f 920/920 921/921 965/965
f 921/921 922/922 965/965
f 922/922 923/923 965/965
f 923/923 924/924 965/965
f 924/924 925/925 965/965
f 925/925 926/926 965/965
f 926/926 927/927 965/965
f 927/927 928/928 965/965
f 928/928 929/929 965/965
f 929/929 930/930 965/965
f 930/930 931/931 965/965
f 931/931 932/932 965/965
f 932/932 933/933 965/965
f 933/933 934/934 965/965
f 934/934 935/935 965/965
f 935/935 936/936 965/965
f 936/936 937/937 965/965
f 937/937 938/938 965/965
f 938/938 939/939 965/965
f 939/939 940/940 965/965
f 940/940 941/941 965/965
f 941/941 942/942 965/965
f 942/942 943/943 965/965
f 943/943 944/944 965/965
f 944/944 945/945 965/965
f 945/945 946/946 965/965
f 946/946 947/947 965/965
f 947/947 948/948 965/965
f 948/948 949/949 965/965
f 949/949 950/950 965/965
f 950/950 951/951 965/965
f 951/951 952/952 965/965
f 952/952 953/953 965/965
f 953/953 954/954 965/965
f 954/954 955/955 965/965
f 955/955 956/956 965/965
f 956/956 957/957 965/965
f 957/957 958/958 965/965
f 958/958 959/959 965/965
f 959/959 960/960 965/965
f 960/960 961/961 965/965
f 961/961 962/962 965/965
f 962/962 963/963 965/965
f 963/963 964/964 965/965
f 964/964 773/773 965/965
f 967/967 966/966 1158/1158
f 968/968 967/967 1158/1158
f 969/969 968/968 1158/1158
f 970/970 969/969 1158/1158
f 971/971 970/970 1158/1158
f 972/972 971/971 1158/1158
f 973/973 972/972 1158/1158
f 974/974 973/973 1158/1158
f 975/975 974/974 1158/1158
f 976/976 975/975 1158/1158
f 977/977 976/976 1158/1158
f 978/978 977/977 1158/1158
f 979/979 978/978 1158/1158
f 980/980 979/979 1158/1158
f 981/981 980/980 1158/1158
f 982/982 981/981 1158/1158
f 983/983 982/982 1158/1158
f 984/984 983/983 1158/1158
f 985/985 984/984 1158/1158
f 986/986 985/985 1158/1158
f 987/987 986/986 1158/1158
f 988/988 987/987 1158/1158
f 989/989 988/988 1158/1158
f 990/990 989/989 1158/1158
f 991/991 990/990 1158/1158
f 992/992 991/991 1158/1158
f 993/993 992/992 1158/1158
f 994/994 993/993 1158/1158
f 995/995 994/994 1158/1158
f 996/996 995/995 1158/1158
f 997/997 996/996 1158/1158
f 998/998 997/997 1158/1158
f 999/999 998/998 1158/1158
f 1000/1000 999/999 1158/1158
f 1001/1001 1000/1000 1158/1158
f 1002/1002 1001/1001 1158/1158
f 1003/1003 1002/1002 1158/1158
f 1004/1004 1003/1003 1158/1158
f 1005/1005 1004/1004 1158/1158
f 1006/1006 1005/1005 1158/1158
f 1007/1007 1006/1006 1158/1158
f 1008/1008 1007/1007 1158/1158
f 1009/1009 1008/1008 1158/1158
f 1010/1010 1009/1009 1158/1158
f 1011/1011 1010/1010 1158/1158
f 1012/1012 1011/1011 1158/1158
f 1013/1013 1012/1012 1158/1158
f 1014/1014 1013/1013 1158/1158
f 1015/1015 1014/1014 1158/1158
f 1016/1016 1015/1015 1158/1158
f 1017/1017 1016/1016 1158/1158
f 1018/1018 1017/1017 1158/1158
f 1019/1019 1018/1018 1158/1158
f 1020/1020 1019/1019 1158/1158
f 1021/1021 1020/1020 1158/1158
f 1022/1022 1021/1021 1158/1158
f 1023/1023 1022/1022 1158/1158
f 1024/1024 1023/1023 1158/1158
f 1025/1025 1024/1024 1158/1158
f 1026/1026 1025/1025 1158/1158
f 1027/1027 1026/1026 1158/1158
f 1028/1028 1027/1027 1158/1158
f 1029/1029 1028/1028 1158/1158
f 1030/1030 1029/1029 1158/1158
f 1031/1031 1030/1030 1158/1158
f 1032/1032 1031/1031 1158/1158
f 1033/1033 1032/1032 1158/1158
f 1034/1034 1033/1033 1158/1158
f 1035/1035 1034/1034 1158/1158
f 1036/1036 1035/1035 1158/1158
f 1037/1037 1036/1036 1158/1158
f 1038/1038 1037/1037 1158/1158
f 1039/1039 1038/1038 1158/1158
f 1040/1040 1039/1039 1158/1158
f 1041/1041 1040/1040 1158/1158
f 1042/1042 1041/1041 1158/1158
f 1043/1043 1042/1042 1158/1158
f 1044/1044 1043/1043 1158/1158
f 1045/1045 1044/1044 1158/1158
f 1046/1046 1045/1045 1158/1158
f 1047/1047 1046/1046 1158/1158
f 1048/1048 1047/1047 1158/1158
f 1049/1049 1048/1048 1158/1158
f 1050/1050 1049/1049 1158/1158
f 1051/1051 1050/1050 1158/1158
f 1052/1052 1051/1051 1158/1158
f 1053/1053 1052/1052 1158/1158
f 1054/1054 1053/1053 1158/1158
f 1055/1055 1054/1054 1158/1158
f 1056/1056 1055/1055 1158/1158
f 1057/1057 1056/1056 1158/1158
f 1058/1058 1057/1057 1158/1158
f 1059/1059 1058/1058 1158/1158
f 1060/1060 1059/1059 1158/1158
f 1061/1061 1060/1060 1158/1158
f 1062/1062 1061/1061 1158/1158
f 1063/1063 1062/1062 1158/1158
f 1064/1064 1063/1063 1158/1158
f 1065/1065 1064/1064 1158/1158
f 1066/1066 1065/1065 1158/1158
f 1067/1067 1066/1066 1158/1158
f 1068/1068 1067/1067 1158/1158
f 1069/1069 1068/1068 1158/1158
f 1070/1070 1069/1069 1158/1158
f 1071/1071 1070/1070 1158/1158
f 1072/1072 1071/1071 1158/1158
f 1073/1073 1072/1072 1158/1158
f 1074/1074 1073/1073 1158/1158
f 1075/1075 1074/1074 1158/1158
f 1076/1076 1075/1075 1158/1158
f 1077/1077 1076/1076 1158/1158
f 1078/1078 1077/1077 1158/1158
f 1079/1079 1078/1078 1158/1158
f 1080/1080 1079/1079 1158/1158
f 1081/1081 1080/1080 1158/1158
f 1082/1082 1081/1081 1158/1158
f 1083/1083 1082/1082 1158/1158
f 1084/1084 1083/1083 1158/1158
f 1085/1085 1084/1084 1158/1158
f 1086/1086 1085/1085 1158/1158
f 1087/1087 1086/1086 1158/1158
f 1088/1088 1087/1087 1158/1158
f 1089/1089 1088/1088 1158/1158
f 1090/1090 1089/1089 1158/1158
f 1091/1091 1090/1090 1158/1158
f 1092/1092 1091/1091 1158/1158
f 1093/1093 1092/1092 1158/1158
f 1094/1094 1093/1093 1158/1158
f 1095/1095 1094/1094 1158/1158
f 1096/1096 1095/1095 1158/1158
f 1097/1097 1096/1096 1158/1158
f 1098/1098 1097/1097 1158/1158
f 1099/1099 1098/1098 1158/1158
f 1100/1100 1099/1099 1158/1158
f 1101/1101 1100/1100 1158/1158
f 1102/1102 1101/1101 1158/1158
f 1103/1103 1102/1102 1158/1158
f 1104/1104 1103/1103 1158/1158
f 1105/1105 1104/1104 1158/1158
f 1106/1106 1105/1105 1158/1158
f 1107/1107 1106/1106 1158/1158
f 1108/1108 1107/1107 1158/1158
f 1109/1109 1108/1108 1158/1158
f 1110/1110 1109/1109 1158/1158
f 1111/1111 1110/1110 1158/1158
f 1112/1112 1111/1111 1158/1158
f 1113/1113 1112/1112 1158/1158
f 1114/1114 1113/1113 1158/1158
f 1115/1115 1114/1114 1158/1158
f 1116/1116 1115/1115 1158/1158
f 1117/1117 1116/1116 1158/1158
f 1118/1118 1117/1117 1158/1158
f 1119/1119 1118/1118 1158/1158
f 1120/1120 1119/1119 1158/1158
f 1121/1121 1120/1120 1158/1158
f 1122/1122 1121/1121 1158/1158
f 1123/1123 1122/1122 1158/1158
f 1124/1124 1123/1123 1158/1158
f 1125/1125 1124/1124 1158/1158
f 1126/1126 1125/1125 1158/1158
f 1127/1127 1126/1126 1158/1158
f 1128/1128 1127/1127 1158/1158
f 1129/1129 1128/1128 1158/1158
f 1130/1130 1129/1129 1158/1158
f 1131/1131 1130/1130 1158/1158
f 1132/1132 1131/1131 1158/1158
f 1133/1133 1132/1132 1158/1158
f 1134/1134 1133/1133 1158/1158
f 1135/1135 1134/1134 1158/1158
f 1136/1136 1135/1135 1158/1158
f 1137/1137 1136/1136 1158/1158
f 1138/1138 1137/1137 1158/1158
f 1139/1139 1138/1138 1158/1158
f 1140/1140 1139/1139 1158/1158
f 1141/1141 1140/1140 1158/1158
f 1142/1142 1141/1141 1158/1158
f 1143/1143 1142/1142 1158/1158
f 1144/1144 1143/1143 1158/1158
f 1145/1145 1144/1144 1158/1158
f 1146/1146 1145/1145 1158/1158
f 1147/1147 1146/1146 1158/1158
f 1148/1148 1147/1147 1158/1158
f 1149/1149 1148/1148 1158/1158
f 1150/1150 1149/1149 1158/1158
f 1151/1151 1150/1150 1158/1158
f 1152/1152 1151/1151 1158/1158
f 1153/1153 1152/1152 1158/1158
f 1154/1154 1153/1153 1158/1158
f 1155/1155 1154/1154 1158/1158
f 1156/1156 1155/1155 1158/1158
f 1157/1157 1156/1156 1158/1158
f 966/966 1157/1157 1158/1158
