# Unit half-extents box with normalized UVs.
# MuJoCo MJCF mesh scale supplies physical size; material texrepeat supplies tiling.
v -1 -1 1
v 1 -1 1
v 1 1 1
v -1 1 1
vt 0 0
vt 1 0
vt 1 1
vt 0 1
f 1/1 2/2 3/3
f 1/1 3/3 4/4
v -1 1 -1
v 1 1 -1
v 1 -1 -1
v -1 -1 -1
vt 0 0
vt 1 0
vt 1 1
vt 0 1
f 5/5 6/6 7/7
f 5/5 7/7 8/8
v -1 1 1
v 1 1 1
v 1 1 -1
v -1 1 -1
vt 0 0
vt 1 0
vt 1 1
vt 0 1
f 9/9 10/10 11/11
f 9/9 11/11 12/12
v 1 -1 1
v -1 -1 1
v -1 -1 -1
v 1 -1 -1
vt 0 0
vt 1 0
vt 1 1
vt 0 1
f 13/13 14/14 15/15
f 13/13 15/15 16/16
v 1 1 1
v 1 -1 1
v 1 -1 -1
v 1 1 -1
vt 0 0
vt 1 0
vt 1 1
vt 0 1
f 17/17 18/18 19/19
f 17/17 19/19 20/20
v -1 -1 1
v -1 1 1
v -1 1 -1
v -1 -1 -1
vt 0 0
vt 1 0
vt 1 1
vt 0 1
f 21/21 22/22 23/23
f 21/21 23/23 24/24
